<?xml version="1.0" standalone="no"?>
<!DOCTYPE svg PUBLIC "-//W3C//DTD SVG 20010904//EN"
 "http://www.w3.org/TR/2001/REC-SVG-20010904/DTD/svg10.dtd">
<svg version="1.0" xmlns="http://www.w3.org/2000/svg"
 width="4500.000000pt" height="4500.000000pt" viewBox="0 0 4500.000000 4500.000000"
 preserveAspectRatio="xMidYMid meet">

<g transform="translate(0.000000,4500.000000) scale(0.100000,-0.100000)"
fill="#000000" stroke="none">
<path d="M30310 34390 c0 -5 -7 -7 -16 -3 -14 5 -14 1 1 -33 9 -22 19 -44 22
-51 2 -6 12 -10 21 -8 9 2 21 4 25 4 5 1 5 7 1 14 -6 8 -3 8 9 -1 9 -8 21 -11
27 -7 14 9 86 17 78 9 -4 -3 21 -41 56 -83 165 -203 343 -485 480 -761 303
-610 473 -1236 537 -1975 23 -263 14 -799 -17 -1071 l-6 -50 -56 7 c-32 5
-103 11 -158 15 l-102 7 -11 -89 c-7 -49 -19 -123 -27 -164 -7 -41 -15 -90
-16 -108 -1 -19 -6 -36 -10 -38 -14 -9 -8 -26 6 -21 10 4 13 1 9 -9 -3 -9 1
-14 11 -14 22 0 32 29 15 42 -11 8 -11 9 3 5 9 -3 19 -1 22 6 2 7 5 -3 5 -20
1 -27 6 -34 29 -38 76 -16 153 -38 167 -49 15 -11 14 -21 -9 -121 -152 -659
-478 -1409 -906 -2084 -98 -155 -108 -166 -135 -165 -17 0 -115 9 -220 20
-259 26 -945 27 -1195 1 -489 -51 -944 -144 -1353 -277 l-158 -51 -22 28
c-533 680 -1168 1217 -1927 1628 -99 53 -144 75 -370 182 -163 77 -446 187
-675 263 -541 177 -1096 283 -1678 321 -234 15 -850 6 -1052 -15 -642 -69
-1194 -203 -1775 -433 -199 -78 -672 -310 -865 -423 -1191 -699 -2103 -1736
-2615 -2975 -303 -732 -470 -1602 -470 -2450 0 -800 145 -1610 427 -2390 36
-99 71 -193 78 -210 8 -16 24 -55 35 -85 12 -30 58 -138 103 -240 513 -1167
1310 -2296 2411 -3418 413 -420 714 -695 1390 -1266 518 -439 662 -563 892
-777 172 -159 432 -421 520 -525 l47 -55 -66 -207 c-322 -1004 -457 -2059
-426 -3342 12 -499 38 -877 100 -1440 77 -698 132 -1061 479 -3110 200 -1183
297 -1906 354 -2640 l15 -185 -69 -255 c-77 -289 -162 -649 -215 -915 -38
-187 -108 -597 -121 -698 -4 -35 -10 -55 -15 -50 -15 15 -201 413 -277 593
-418 990 -661 1993 -736 3045 -9 116 -18 242 -21 280 -3 39 -9 651 -14 1360
-9 1206 -13 1408 -41 1770 -76 991 -310 1925 -743 2960 -41 99 -91 215 -111
259 -36 77 -36 78 -67 72 -17 -3 -38 -6 -45 -6 -8 0 -14 -5 -14 -11 0 -6 31
-81 69 -167 438 -1000 701 -1952 795 -2872 50 -485 58 -751 61 -1945 3 -1075
10 -1368 40 -1760 73 -941 282 -1858 623 -2740 117 -303 299 -710 414 -925
l50 -95 -21 -220 c-32 -335 -41 -522 -41 -847 l0 -298 45 0 45 0 0 248 c0 136
5 333 10 437 12 205 37 505 43 512 2 2 50 -74 105 -169 l100 -173 7 -165 c7
-159 6 -170 -24 -310 -17 -80 -44 -198 -60 -263 l-28 -118 51 3 51 3 19 88
c19 85 36 114 36 60 0 -14 5 -55 11 -90 l11 -63 47 0 48 0 -14 83 c-39 242
-51 481 -27 541 7 19 42 -29 165 -232 l51 -83 -1 -154 -2 -155 45 0 45 0 3 78
3 77 45 -77 45 -78 59 0 c58 0 58 0 44 23 -8 12 -54 88 -102 169 l-87 148 11
147 c95 1320 470 2545 1118 3652 119 205 252 419 419 679 79 122 207 322 286
445 364 565 593 964 760 1322 375 809 603 1753 692 2865 28 360 75 963 90
1160 28 378 38 777 25 1040 -6 134 -13 247 -16 251 -2 4 3 36 11 71 25 106 20
176 -22 300 l-37 110 28 23 c29 23 40 75 17 83 -7 2 -11 29 -11 68 l0 64 39 0
c49 0 103 35 114 76 6 22 23 38 60 59 29 16 128 80 220 142 93 63 201 130 239
149 175 88 397 154 793 234 1353 276 2669 747 3880 1390 237 125 235 124 455
250 1229 705 2296 1672 3014 2732 680 1004 1051 2026 1158 3188 17 182 16 814
0 1000 -97 1066 -423 1994 -1006 2860 -744 1106 -1878 1990 -3166 2470 -279
104 -588 198 -832 254 -30 7 -29 27 3 58 9 9 29 41 44 70 34 67 47 90 116 208
31 52 75 129 99 170 24 41 48 78 54 82 7 5 7 8 1 8 -7 0 -7 3 0 8 12 8 166
313 165 327 0 5 13 37 30 70 16 33 47 105 69 159 22 54 45 103 53 107 7 5 9 9
4 9 -5 0 -4 6 1 13 6 6 23 46 38 87 15 41 31 80 35 85 4 6 27 70 50 143 24 72
46 132 50 132 6 0 20 42 25 75 0 6 11 40 23 76 12 36 25 76 27 90 13 70 19 90
40 154 13 39 27 88 31 110 4 22 10 47 14 55 5 8 10 29 13 45 3 17 10 50 16 75
11 49 44 264 60 395 43 339 47 889 11 1240 -15 149 -50 378 -61 397 -5 10 -9
30 -9 45 0 16 -4 44 -10 63 -5 19 -11 46 -14 60 -34 159 -109 403 -186 600
-12 30 -25 66 -30 80 -22 67 -78 188 -91 196 -5 3 -7 10 -3 15 6 10 -75 181
-88 187 -5 2 -8 10 -8 19 0 8 -8 27 -18 41 -10 15 -29 48 -41 75 -13 26 -27
45 -32 42 -5 -4 -6 0 -4 7 3 8 -3 23 -14 35 -11 11 -17 24 -14 27 4 3 -2 6
-11 6 -13 0 -17 6 -13 20 3 11 1 22 -4 25 -5 3 -16 21 -25 40 -9 19 -21 32
-26 29 -5 -3 -8 0 -7 7 3 18 -21 69 -33 69 -4 0 -8 6 -8 13 0 8 -9 22 -20 32
-11 10 -20 23 -20 28 0 14 -61 109 -82 128 -10 9 -18 19 -18 23 0 7 -12 23
-42 57 -10 10 -18 21 -18 24 0 5 -35 45 -90 105 -8 8 -35 41 -59 73 -24 31
-47 57 -52 57 -4 0 -29 20 -55 45 -25 25 -48 45 -49 45 -1 0 -22 19 -46 43
-65 61 -109 97 -123 97 -6 0 -28 11 -48 25 -27 18 -59 27 -125 35 -111 12
-143 13 -143 0z m112 -48 c-7 -2 -10 -8 -6 -13 3 -5 1 -9 -5 -9 -5 0 -9 9 -8
19 1 12 6 17 16 13 10 -4 11 -7 3 -10z m113 -12 c26 -28 15 -31 -12 -3 -12 13
-19 23 -14 23 4 0 16 -9 26 -20z m701 -4287 c-11 -11 -19 6 -11 24 8 17 8 17
12 0 3 -10 2 -21 -1 -24z m-8574 -883 c299 -20 735 -84 943 -138 l70 -19 -76
-17 c-162 -36 -415 -123 -576 -199 l-53 -24 78 -31 c42 -16 96 -36 120 -43 23
-7 48 -19 55 -28 9 -12 9 -13 0 -7 -7 4 -19 3 -26 -1 -11 -7 -11 -12 1 -33 13
-24 13 -24 9 -2 -5 20 -2 22 16 16 12 -3 32 -19 44 -34 12 -15 36 -33 53 -40
16 -7 30 -17 30 -22 0 -5 4 -7 9 -4 5 4 20 2 33 -3 22 -9 22 -10 -7 -11 -25
-2 -27 -3 -9 -8 12 -4 37 -19 55 -34 18 -16 36 -28 41 -28 4 0 8 -7 8 -15 0
-8 -8 -15 -17 -15 -10 0 -25 -4 -33 -10 -11 -7 -9 -11 13 -19 15 -6 27 -15 27
-20 0 -5 10 -13 23 -17 12 -4 24 -9 27 -13 8 -10 44 -31 63 -37 25 -9 21 -24
-8 -24 -19 0 -28 -8 -40 -37 -17 -41 -13 -53 15 -35 12 7 21 8 25 2 3 -6 -1
-10 -9 -10 -28 0 -17 -14 34 -45 28 -16 50 -35 50 -42 0 -7 8 -13 19 -13 10 0
24 -7 32 -16 11 -14 10 -15 -7 -12 -10 1 -25 9 -32 16 -15 14 -32 16 -32 4 0
-5 12 -14 26 -21 16 -7 24 -17 20 -26 -3 -9 0 -12 10 -8 11 4 14 -4 14 -35 0
-37 -2 -40 -25 -37 -14 1 -25 1 -25 -1 0 -1 17 -13 38 -25 63 -39 123 -93 117
-107 -3 -7 0 -10 6 -7 13 9 51 -25 45 -40 -2 -6 6 -12 17 -12 11 -1 32 -13 46
-28 25 -25 25 -25 3 -25 -12 0 -22 -4 -22 -9 0 -11 26 -21 43 -17 6 1 9 1 5
-1 -17 -10 -5 -26 70 -101 97 -97 192 -205 186 -212 -3 -2 -9 2 -14 10 -8 12
-10 12 -10 -3 0 -11 9 -21 20 -24 23 -6 26 -19 8 -27 -7 -3 -3 -3 10 0 21 5
28 -4 23 -30 -1 -5 3 -12 10 -16 9 -6 8 -13 -4 -30 l-15 -22 -7 22 c-4 12 -9
19 -12 17 -7 -7 27 -71 43 -80 8 -4 14 -15 14 -22 0 -8 7 -15 15 -15 8 0 15
-6 15 -12 0 -9 4 -8 11 2 8 12 9 10 4 -8 -5 -16 4 -38 28 -77 l34 -54 27 96
c73 260 181 487 324 683 66 90 288 313 356 358 51 33 85 44 50 16 -18 -15 -18
-15 3 -5 28 14 36 14 27 -1 -5 -7 -3 -8 5 -4 9 6 9 12 -3 25 -15 16 -13 20 32
44 l48 26 64 -36 c104 -56 336 -214 455 -309 212 -168 453 -396 645 -610 453
-503 823 -1142 1064 -1834 47 -133 156 -502 151 -508 -1 -1 -51 -16 -111 -32
-184 -49 -428 -156 -650 -284 l-62 -36 -11 45 c-12 50 -29 61 -26 18 1 -16 0
-19 -2 -8 -3 11 -9 24 -14 30 -5 5 -9 19 -9 31 0 12 -7 41 -16 65 -22 62 -44
146 -44 172 -1 24 -24 60 -33 51 -3 -3 -14 -1 -24 4 -17 10 -18 7 -16 -26 l4
-37 -16 34 c-8 18 -15 43 -15 55 0 17 -2 18 -10 6 -7 -11 -11 -9 -19 14 -6 15
-8 32 -5 38 4 7 2 8 -4 4 -8 -5 -12 3 -12 23 0 41 -17 81 -33 81 -10 0 -17 19
-22 63 -7 57 -8 60 -16 32 -11 -35 7 -114 28 -122 7 -3 12 -15 12 -27 -1 -14
-3 -16 -6 -5 -2 9 -15 21 -28 27 -20 9 -25 19 -26 49 0 23 -3 32 -7 22 -5 -12
-13 -14 -27 -8 -17 6 -17 8 -3 8 18 1 36 46 24 58 -3 4 -6 -3 -6 -15 0 -11 -4
-24 -10 -27 -5 -3 -10 3 -10 14 0 11 -5 23 -11 26 -6 4 -8 14 -5 22 3 8 1 11
-4 8 -6 -4 -14 9 -18 27 -6 29 -8 25 -12 -31 -3 -40 -10 -66 -18 -69 -7 -2
-12 0 -11 5 1 4 -4 22 -11 38 -7 17 -12 42 -11 58 3 30 -15 38 -22 10 -2 -10
-10 11 -17 46 -10 49 -15 59 -23 46 -5 -9 -6 -31 -3 -48 4 -23 3 -28 -4 -17
-5 8 -10 23 -10 33 0 10 -5 15 -10 12 -6 -3 -13 1 -16 9 -8 21 -24 20 -24 -1
-1 -11 -9 -2 -19 19 -11 21 -26 44 -34 52 -13 14 -16 14 -21 0 -3 -9 -3 -21 0
-27 5 -9 4 -9 -5 -1 -10 9 -9 19 4 44 9 18 12 29 6 26 -6 -4 -16 2 -23 14 -17
26 -32 26 -25 -1 5 -20 5 -20 -14 -3 -12 11 -17 25 -14 38 6 21 6 21 -10 1
-16 -19 -17 -19 -15 10 4 54 0 61 -16 32 -16 -29 -38 -29 -27 1 6 14 4 15 -9
4 -14 -11 -17 -8 -22 24 -7 32 -9 34 -20 19 -7 -10 -18 -15 -24 -11 -7 4 -12
1 -12 -6 -1 -8 -6 -6 -15 6 -14 19 -15 18 -16 -10 -1 -28 -1 -28 -8 -4 -6 22
-8 19 -15 -22 -4 -27 -5 -52 -1 -57 3 -5 1 -12 -5 -16 -6 -3 -13 1 -16 9 -3 9
-10 14 -14 11 -5 -3 -11 -1 -14 4 -3 5 -14 7 -24 4 -13 -3 -22 4 -30 22 -7 14
-16 24 -21 21 -5 -4 -12 0 -14 6 -3 7 -3 -3 0 -22 6 -32 5 -34 -10 -21 -12 9
-17 10 -17 2 0 -6 7 -14 15 -17 13 -5 13 -9 0 -34 -8 -16 -15 -47 -15 -70 0
-22 -5 -40 -11 -40 -7 0 -8 11 -4 30 6 28 -9 44 -17 19 -3 -8 -10 -6 -20 5
-14 13 -17 14 -20 2 -6 -26 -34 5 -67 74 -31 63 -32 64 -26 24 4 -23 2 -45 -3
-48 -5 -3 -7 -17 -4 -31 3 -18 0 -25 -10 -25 -13 0 -14 8 -7 43 11 55 11 57
-1 57 -5 0 -11 -10 -11 -22 -1 -17 -2 -19 -6 -5 -2 9 -11 17 -19 17 -14 0 -18
12 -15 38 1 8 -4 21 -12 30 -8 10 -17 25 -21 35 -3 11 -15 21 -26 24 -11 3
-22 15 -26 27 -7 20 -8 19 -15 -8 -4 -16 -6 -43 -3 -60 4 -28 2 -26 -18 15
-13 25 -31 54 -40 63 -10 10 -18 27 -18 38 0 14 -5 18 -16 14 -8 -3 -12 -2 -9
4 3 6 1 10 -5 10 -6 0 -8 6 -4 13 4 6 -14 -8 -40 -33 -27 -26 -49 -40 -54 -35
-5 6 -49 66 -98 135 -127 179 -247 326 -386 473 -78 83 -124 124 -128 117 -10
-16 0 -51 11 -44 5 3 7 10 4 15 -4 5 -2 9 3 9 6 0 13 -7 16 -16 4 -11 -1 -18
-14 -21 -25 -7 -25 -5 0 -89 33 -112 38 -133 64 -274 49 -264 51 -281 63 -497
l5 -82 -46 -32 c-50 -36 -56 -46 -28 -51 9 -2 21 5 27 17 6 11 19 21 29 23 18
4 19 -2 12 -103 -4 -59 -12 -117 -19 -129 -6 -12 -12 -25 -12 -31 -1 -5 -7 -9
-14 -7 -7 1 -10 -2 -7 -7 4 -5 -6 -25 -22 -43 -31 -37 -196 -281 -290 -429
-365 -577 -676 -1301 -842 -1959 -12 -46 -24 -89 -28 -94 -3 -6 -6 -20 -7 -31
-3 -55 -6 -66 -13 -61 -4 3 -7 -8 -6 -25 1 -16 -2 -29 -7 -29 -5 0 -8 -3 -8
-7 5 -29 -5 -41 -43 -52 -24 -7 -50 -22 -59 -32 -9 -10 -24 -19 -33 -19 -9 0
-16 -4 -16 -10 0 -5 -6 -10 -12 -10 -12 0 -58 -20 -132 -58 -21 -11 -30 -11
-35 -3 -5 8 -22 1 -52 -21 -102 -76 -128 -90 -154 -84 -18 5 -25 2 -25 -9 0
-8 -7 -15 -15 -15 -8 0 -15 7 -15 15 0 9 -9 15 -22 15 -19 0 -20 -2 -8 -10 13
-8 12 -10 -3 -10 -17 0 -26 6 -62 38 -15 13 -38 16 -48 6 -3 -4 5 -28 18 -54
14 -27 31 -67 38 -89 l14 -40 -28 15 c-16 8 -33 23 -39 34 -15 28 -40 25 -40
-4 0 -33 39 -86 80 -107 19 -11 54 -19 79 -19 64 0 159 -39 159 -66 0 -11 -6
-21 -14 -21 -7 0 -11 5 -8 11 3 6 -1 3 -9 -6 -8 -10 -19 -18 -26 -18 -6 0 -16
-12 -21 -26 -12 -31 -35 -29 -110 6 -107 51 -120 63 -120 112 0 36 -2 38 -20
28 -27 -14 -26 -58 2 -87 17 -18 22 -35 20 -67 -1 -41 0 -43 48 -71 59 -34 69
-54 40 -77 -11 -9 -21 -21 -20 -25 0 -4 -3 -8 -8 -8 -14 0 -84 -70 -99 -99 -8
-16 -24 -56 -35 -90 -11 -34 -33 -86 -48 -118 -15 -31 -31 -66 -35 -77 -3 -12
-20 -36 -36 -53 -16 -18 -29 -38 -29 -46 0 -9 -10 -12 -32 -9 -25 2 -34 9 -40
33 -14 50 2 203 28 270 25 62 30 94 16 94 -4 0 -28 -20 -53 -45 -44 -43 -62
-71 -92 -145 -31 -78 -38 -96 -41 -127 -8 -59 -16 -75 -37 -70 -10 3 -17 1
-14 -3 3 -5 0 -10 -6 -12 -18 -6 15 -69 57 -109 22 -20 84 -64 139 -97 55 -33
113 -71 128 -83 35 -26 91 -48 132 -49 17 -1 39 -5 49 -9 16 -6 9 -12 -35 -33
-30 -14 -65 -26 -79 -26 -14 0 -29 -1 -35 -3 -33 -10 -99 19 -190 85 -124 90
-192 129 -207 120 -6 -4 -8 -3 -5 3 7 11 -33 27 -42 18 -2 -3 1 -5 7 -5 7 0
12 -5 12 -11 0 -5 -4 -7 -10 -4 -5 3 -10 2 -10 -4 0 -16 204 -163 359 -258 2
-1 -6 -55 -18 -120 -12 -65 -30 -174 -39 -242 l-17 -124 -259 364 c-143 200
-263 368 -268 373 -4 6 -8 -28 -8 -75 l0 -84 78 -110 c192 -270 419 -591 426
-604 5 -7 10 -205 11 -440 2 -462 10 -589 66 -975 55 -388 143 -790 265 -1216
63 -218 236 -747 275 -837 10 -25 19 -52 19 -61 0 -22 -62 -159 -181 -401 -99
-199 -320 -616 -339 -638 -5 -7 -10 -17 -10 -23 0 -5 -5 -10 -11 -10 -5 0 -8
-4 -5 -9 6 -10 -12 -9 -29 0 -5 3 -36 5 -67 4 -32 -1 -58 2 -58 7 0 4 5 8 11
8 5 0 7 5 4 10 -3 6 -1 10 6 10 7 0 10 3 6 6 -3 3 -12 2 -19 -2 -25 -16 -58
-15 -58 1 0 8 -6 15 -14 15 -10 0 -12 -7 -9 -22 5 -23 5 -23 -10 -3 -9 11 -17
25 -17 32 0 6 -6 13 -12 16 -8 2 -9 8 -4 13 5 5 11 4 13 -3 5 -15 54 -17 69
-4 5 5 20 11 34 14 24 4 24 4 -2 6 -32 1 -34 8 -13 38 17 24 2 44 -17 25 -8
-8 -19 -7 -39 4 -17 8 -29 10 -29 4 0 -5 -7 -10 -15 -10 -8 0 -15 -9 -15 -20
0 -11 7 -20 15 -20 8 0 15 -4 15 -10 0 -11 -11 -13 -34 -4 -20 8 -21 53 -1 60
10 4 13 13 10 25 -8 23 1 24 50 3 45 -18 69 -12 60 16 -4 14 -1 22 10 26 9 4
14 12 12 18 -3 7 1 20 9 31 22 30 17 35 -36 35 -27 0 -50 4 -50 8 0 5 24 7 54
4 42 -3 54 -1 59 12 5 13 -2 16 -42 16 -36 0 -51 4 -55 16 -5 13 -1 15 21 12
16 -3 36 -9 46 -13 12 -5 17 -3 17 8 0 10 -15 17 -45 21 -24 4 -48 13 -52 21
-5 7 -19 15 -33 18 -17 3 -13 5 15 6 53 2 86 11 79 22 -8 13 -41 11 -48 -3 -5
-10 -7 -10 -12 0 -3 6 -14 12 -25 12 -13 0 -17 5 -12 16 4 12 14 15 39 11 19
-3 34 -2 34 4 0 5 -16 9 -37 9 -34 0 -35 1 -20 18 8 9 17 26 19 37 3 18 -3 20
-49 23 -71 4 -68 22 2 21 93 -3 91 23 -3 28 -85 4 -92 6 -92 21 0 11 19 12 93
9 l92 -5 -108 11 c-85 9 -111 16 -118 30 -8 13 -6 17 8 17 13 0 14 3 5 12 -17
17 -15 43 4 59 15 12 13 15 -22 25 l-39 12 43 7 c53 9 54 21 2 29 -41 6 -56
26 -20 26 11 0 20 7 20 15 0 8 -9 15 -20 15 -11 0 -20 7 -20 15 0 10 16 16 50
21 28 4 50 10 50 15 0 5 -22 9 -50 9 -49 0 -50 1 -50 30 0 21 5 30 16 30 8 0
12 5 8 11 -3 6 0 15 7 20 26 16 -8 34 -61 33 -29 -1 -50 3 -53 10 -3 7 9 10
39 7 40 -3 44 -1 44 19 0 20 -4 22 -44 19 -25 -2 -42 0 -39 5 4 5 -12 7 -35 3
-40 -5 -42 -4 -42 20 0 26 -1 26 -61 19 -34 -3 -106 -6 -160 -6 -81 0 -99 -3
-99 -15 0 -17 -46 -21 -70 -5 -18 11 -14 16 30 28 30 9 31 10 10 11 -41 2 -57
17 -43 40 10 15 10 21 0 24 -9 3 -9 9 1 26 10 18 10 26 1 37 -9 11 -9 14 0 14
8 0 7 6 -3 16 -17 16 -36 11 -36 -10 0 -8 -7 -19 -15 -26 -8 -7 -12 -16 -9
-21 3 -5 -2 -9 -10 -9 -10 0 -16 9 -16 25 0 37 -23 30 -42 -12 l-17 -38 0 68
c-1 37 -5 67 -9 67 -5 0 -17 7 -28 16 -18 15 -18 15 9 9 22 -4 27 -2 27 15 0
12 -9 24 -22 30 -20 8 -18 9 15 9 20 1 37 6 37 12 0 5 -4 7 -10 4 -5 -3 -10
-2 -10 3 0 5 -14 13 -32 18 -25 7 -32 16 -35 39 -3 16 -10 33 -16 37 -19 12
-40 9 -34 -5 5 -15 -20 -54 -29 -45 -3 4 -1 15 4 24 7 13 7 25 0 37 -7 13 -6
23 1 30 13 13 15 31 3 23 -5 -3 -9 1 -9 9 0 8 3 15 6 15 3 0 7 15 8 32 2 18 7
34 13 36 6 2 8 7 5 12 -3 4 2 27 11 51 15 43 61 192 130 418 167 546 346 1332
405 1770 53 401 60 480 45 509 -11 19 -15 22 -16 10 0 -12 -8 -18 -25 -18 -14
0 -25 -4 -25 -10 0 -21 -30 -9 -31 13 0 14 -3 17 -6 8 -3 -8 -21 -30 -39 -48
-25 -25 -45 -35 -81 -39 -39 -5 -46 -4 -36 6 9 10 10 17 2 27 -7 7 -9 13 -6
13 3 0 0 12 -8 27 -8 15 -12 30 -9 35 3 5 2 17 -2 26 -4 9 -6 27 -5 40 1 12
-2 22 -7 22 -10 0 -16 18 -27 83 -3 15 -1 27 5 27 11 0 -27 102 -42 111 -5 4
-10 23 -11 43 -1 33 -3 36 -31 36 -22 0 -27 3 -17 9 12 8 12 18 1 71 -14 65
-22 67 -39 10 l-11 -35 5 32 c6 41 -10 51 -38 25 -22 -19 -57 -26 -57 -10 0 4
-6 8 -13 8 -7 0 -13 -10 -13 -22 0 -13 -1 -45 -2 -71 l-2 -48 -36 7 c-27 5
-35 4 -30 -5 4 -6 2 -11 -3 -11 -6 0 -12 15 -13 33 l-1 32 -4 -31 c-3 -21 -11
-34 -24 -37 -12 -3 -17 -11 -13 -21 4 -10 -5 -19 -30 -30 -20 -8 -39 -22 -42
-31 -4 -8 -11 -15 -18 -14 -25 3 -33 -3 -46 -36 -11 -27 -20 -35 -39 -36 l-26
-1 25 -8 c21 -7 22 -8 5 -9 -11 -1 -35 -10 -53 -21 -18 -11 -38 -17 -44 -14
-7 4 -8 2 -4 -4 4 -8 0 -12 -11 -12 -31 -1 -53 -24 -46 -50 6 -23 6 -23 -18
-7 -28 20 -39 21 -39 5 0 -19 -46 -38 -59 -25 -8 8 -11 8 -11 0 0 -14 31 -26
39 -16 8 11 31 15 31 5 0 -5 -7 -17 -15 -28 -11 -14 -14 -15 -15 -4 0 13 -1
13 -10 0 -5 -8 -10 -10 -10 -4 0 14 -73 7 -78 -7 -2 -5 -15 -9 -29 -9 -16 0
-27 -7 -30 -20 -3 -11 -9 -20 -14 -20 -5 0 -9 -6 -9 -14 0 -9 -7 -12 -19 -9
-12 3 -24 -3 -33 -16 -8 -12 -18 -18 -21 -14 -4 3 -7 1 -7 -5 0 -6 -7 -9 -15
-6 -8 4 -15 1 -15 -5 0 -6 -15 -11 -34 -11 -28 0 -35 -4 -38 -22 -2 -17 -11
-24 -30 -26 -24 -3 -28 0 -28 22 0 14 5 26 10 26 6 0 10 -7 10 -16 0 -8 4 -13
9 -10 5 4 8 14 7 24 -2 13 -15 18 -56 20 -48 3 -52 2 -40 -13 11 -13 10 -15
-4 -9 -9 3 -16 1 -16 -5 0 -6 -5 -11 -10 -11 -6 0 -8 11 -4 26 5 19 4 25 -5
20 -6 -4 -9 -12 -6 -17 4 -5 1 -9 -4 -9 -6 0 -11 -6 -11 -14 0 -11 -11 -13
-45 -10 -27 3 -45 0 -45 -6 0 -5 -9 -10 -20 -10 -12 0 -20 -7 -20 -17 0 -13
-3 -12 -19 5 -22 26 -37 28 -45 5 -7 -18 12 -35 28 -26 5 3 6 2 3 -3 -8 -14
-63 -9 -59 5 1 6 -2 11 -8 11 -5 0 -10 -4 -10 -10 0 -5 -7 -7 -15 -4 -8 4 -21
2 -28 -3 -19 -15 -56 -22 -63 -12 -3 5 -20 9 -37 8 -27 0 -29 -2 -12 -9 21
-10 -26 -5 -97 10 -29 6 -38 4 -44 -9 -4 -11 -8 -12 -11 -3 -3 6 -13 12 -23
12 -10 0 -20 -6 -23 -12 -3 -10 -9 -10 -26 0 -11 6 -32 12 -47 12 -22 0 -24 3
-19 23 5 15 4 19 -3 12 -5 -5 -12 -18 -14 -27 -1 -10 -36 48 -77 131 -45 90
-80 148 -90 149 -9 1 -23 3 -32 3 -9 0 -26 17 -37 37 -12 20 -22 31 -22 25 0
-23 -20 -13 -20 10 0 16 -3 18 -9 8 -12 -18 -26 -8 -51 38 -17 30 -27 37 -45
33 -15 -3 -28 3 -39 19 -21 30 -21 32 15 -129 130 -585 313 -1145 533 -1626
32 -71 34 -78 16 -73 -13 3 -20 0 -20 -9 0 -12 -3 -12 -14 -2 -12 11 -12 14 2
19 11 4 12 8 4 13 -7 4 -12 21 -12 39 0 44 -18 22 -22 -27 -4 -48 -28 -62 -28
-16 0 20 -4 29 -11 24 -14 -8 -29 14 -29 44 0 15 -6 22 -19 22 -11 0 -26 9
-34 20 -8 11 -17 17 -22 12 -4 -4 -5 1 -2 11 5 14 0 17 -28 17 -28 0 -37 5
-50 31 -11 19 -22 29 -31 25 -10 -4 -14 2 -14 20 0 13 -7 27 -15 30 -8 4 -15
13 -15 20 0 12 -4 12 -20 4 -15 -8 -21 -6 -30 10 -6 11 -8 25 -5 30 3 6 -2 10
-13 10 -10 0 -25 12 -33 28 -18 35 -30 43 -52 36 -13 -4 -19 2 -23 25 -5 23
-13 31 -35 36 -16 4 -29 13 -29 20 0 23 -28 43 -54 38 -19 -4 -28 2 -42 24
-11 15 -24 33 -30 38 -6 6 -16 19 -22 30 -6 11 -12 14 -12 8 0 -21 -29 -14
-41 10 -6 12 -19 29 -28 38 -31 32 -51 59 -51 72 0 7 -9 18 -19 24 -15 10 -20
9 -25 -2 -8 -21 -24 -18 -31 5 -4 11 -16 32 -28 45 -12 13 -35 47 -52 75 -21
35 -36 50 -50 49 -37 -2 -43 1 -55 30 -10 24 -19 31 -48 33 -40 3 -57 28 -20
29 22 0 22 1 3 9 -11 5 -14 9 -7 9 8 1 12 7 9 14 -2 6 -11 11 -21 9 -9 -2 -16
2 -16 8 0 5 4 10 9 10 5 0 7 10 3 22 -5 19 -7 16 -17 -17 l-11 -40 -13 32
c-14 35 -40 50 -53 31 -6 -10 -8 -9 -8 4 0 9 6 18 13 21 8 3 3 13 -15 30 -15
13 -24 29 -20 33 4 5 -2 1 -14 -8 -16 -14 -23 -15 -32 -6 -7 7 -12 17 -12 23
0 7 -9 20 -20 30 -11 10 -18 20 -16 23 3 2 0 9 -5 16 -5 6 -17 20 -25 31 -13
16 -15 17 -10 3 3 -10 2 -18 -3 -18 -12 0 -20 35 -11 50 9 14 -20 70 -35 70
-6 0 -12 -12 -13 -27 -1 -14 -4 -28 -6 -31 -6 -6 -27 36 -32 66 -8 41 -22 48
-35 19 -7 -15 -16 -27 -20 -27 -14 0 -17 29 -4 40 8 6 11 18 8 26 -3 8 -8 13
-10 10 -8 -8 -43 33 -43 50 0 11 -5 14 -16 10 -10 -4 -14 -1 -11 6 2 7 11 12
20 12 12 -1 13 3 5 21 -10 22 -38 29 -49 12 -4 -5 -18 9 -31 32 -14 23 -28 38
-33 34 -4 -5 -5 -3 -2 4 8 13 -8 63 -20 63 -24 -1 -35 -18 -24 -38 7 -13 7
-23 2 -27 -5 -3 -24 25 -42 62 -18 38 -34 70 -36 72 -1 2 -9 -2 -18 -9 -12
-10 -15 -10 -15 0 0 7 -6 10 -13 7 -10 -4 -13 1 -10 17 3 16 -2 26 -19 34 -23
12 -23 12 5 9 30 -5 46 7 22 17 -8 3 -15 12 -15 21 0 17 -9 19 -29 6 -16 -10
-35 4 -45 34 -3 11 -15 26 -27 33 -17 11 -20 11 -14 0 6 -10 5 -10 -5 -1 -11
10 -16 9 -25 -4 -10 -13 -11 -10 -7 17 3 23 1 31 -7 26 -6 -4 -11 -16 -11 -27
0 -10 -7 -19 -15 -19 -18 0 -19 -13 -4 -43 10 -21 10 -22 -5 -2 -8 11 -20 25
-26 32 -6 8 -6 14 0 18 6 3 10 12 9 18 0 9 -2 9 -6 0 -2 -7 -9 -13 -15 -13 -6
0 -4 8 5 18 12 13 12 20 3 28 -16 15 -40 -11 -33 -36 3 -11 -1 -24 -8 -30 -11
-9 -17 -5 -30 19 -8 17 -15 33 -16 36 0 3 -8 24 -18 47 -10 24 -48 126 -84
228 -252 713 -401 1431 -448 2159 -15 240 -7 810 16 1031 15 151 47 402 60
475 26 143 74 352 107 464 40 138 66 193 54 116 -33 -214 -32 -657 2 -900 9
-60 35 -71 38 -16 1 21 -1 29 -7 20 -4 -7 -10 -11 -12 -9 -2 3 4 77 14 165 23
196 22 192 7 177 -15 -15 -28 -16 -28 -2 0 6 12 15 26 20 22 9 25 14 19 38 -5
15 -8 35 -9 44 0 9 -4 14 -8 12 -4 -3 -8 2 -8 11 0 10 -5 13 -12 9 -11 -7 -10
9 11 156 6 38 5 57 -3 62 -8 6 -8 8 0 8 18 0 26 32 12 42 -10 6 -9 8 3 8 19 0
30 50 17 74 -5 8 -3 27 4 43 6 15 10 32 9 37 -1 5 1 16 5 25 4 9 9 30 11 46
10 76 120 423 191 601 99 248 319 683 400 792 39 51 16 37 -50 -30 -34 -35
-54 -54 -45 -42 10 11 17 24 17 28 0 4 23 45 50 92 28 47 50 87 50 90 0 13
237 361 333 490 331 440 738 841 1157 1138 276 196 439 293 725 432 610 296
1272 468 2015 523 159 12 688 12 862 1z m7208 -2045 c863 -31 1884 -356 2715
-863 217 -133 543 -357 533 -368 -2 -1 -21 1 -43 6 -101 24 -325 50 -475 56
l-165 6 36 -28 c56 -45 71 -68 55 -89 -18 -25 -46 -12 -46 20 0 26 -14 33 -26
14 -3 -6 -2 -14 4 -18 6 -3 12 -13 14 -21 2 -8 17 -28 33 -45 68 -67 111 -147
71 -132 -6 2 -19 1 -28 -2 -15 -5 -14 -10 10 -40 15 -19 37 -45 50 -58 12 -13
22 -28 22 -33 0 -6 20 -41 45 -80 25 -39 45 -74 45 -80 0 -16 -21 -22 -35 -10
-12 10 -15 9 -15 -9 0 -25 25 -28 47 -6 14 14 17 14 30 -5 18 -26 16 -29 -25
-32 -18 -1 -32 -4 -32 -6 0 -4 42 -82 90 -167 13 -24 16 -35 7 -35 -8 0 -7 -4
3 -10 12 -8 8 -10 -15 -11 l-30 -1 33 -8 c41 -10 51 -18 32 -30 -23 -15 -40
-12 -34 5 9 23 -9 18 -25 -6 -11 -19 -10 -25 8 -50 12 -15 21 -35 21 -44 0 -8
4 -23 9 -33 52 -106 82 -190 71 -197 -5 -3 -10 5 -12 17 -2 12 -8 23 -14 25
-7 2 -9 -8 -6 -27 2 -16 9 -30 16 -30 12 0 -14 -20 -26 -20 -4 0 -5 14 -1 30
4 23 2 30 -11 30 -11 0 -15 -8 -13 -27 3 -34 27 -73 44 -73 7 0 13 -7 13 -16
0 -11 6 -15 20 -11 14 4 20 0 20 -11 0 -13 2 -14 9 -4 7 11 9 11 14 -1 6 -16
-18 -31 -34 -21 -5 3 -9 1 -9 -4 0 -6 -10 -8 -22 -5 -17 4 -6 -10 35 -50 l59
-55 -22 -22 c-19 -19 -19 -21 -3 -16 10 3 25 1 33 -4 12 -8 11 -11 -7 -16 -26
-7 -32 -34 -8 -34 9 0 15 -9 15 -21 0 -18 -2 -19 -15 -9 -18 15 -19 9 -4 -24
7 -14 17 -22 25 -19 10 4 12 0 8 -11 -5 -12 -2 -15 10 -10 12 5 15 2 10 -10
-4 -11 -1 -16 10 -16 9 0 16 -8 16 -20 0 -16 -7 -20 -32 -20 -30 -1 -31 -2
-13 -12 28 -16 69 -59 84 -86 9 -17 9 -27 1 -37 -7 -9 -8 -15 0 -20 5 -3 10
-14 10 -23 0 -9 5 -35 11 -57 l11 -39 52 56 c58 63 182 172 271 240 161 122
368 224 572 283 101 30 128 26 129 -16 1 -17 6 -35 12 -41 8 -8 9 -5 6 9 -4
13 3 29 18 43 12 13 16 20 8 16 -9 -5 -9 -2 2 7 10 8 14 17 11 21 -4 4 17 6
46 4 l54 -3 68 -95 c105 -146 222 -346 324 -555 426 -871 599 -1882 495 -2900
-23 -222 -53 -415 -65 -415 -6 0 -58 8 -116 17 -142 22 -512 22 -702 0 -77
-10 -143 -14 -149 -11 -5 3 -8 15 -5 25 3 10 0 20 -7 23 -6 2 -1 5 12 5 15 1
22 7 22 20 0 22 -26 36 -34 18 -4 -7 -4 9 -2 35 3 40 1 45 -10 33 -8 -7 -14
-23 -14 -34 0 -11 -4 -23 -10 -26 -16 -10 -12 12 11 65 12 27 19 55 16 62 -3
8 -6 6 -6 -5 -1 -13 -7 -17 -23 -15 -11 2 -23 -2 -25 -9 -3 -7 3 -9 16 -6 12
3 21 1 21 -6 0 -6 -9 -11 -20 -11 -13 0 -22 -10 -29 -32 -5 -18 -10 -26 -10
-18 -1 13 -3 13 -10 1 -5 -8 -17 -16 -26 -17 -12 -2 -14 3 -9 19 4 12 8 29 8
38 0 10 6 15 13 12 8 -3 13 3 13 17 0 11 -4 19 -9 15 -5 -3 -11 3 -13 12 -2
13 -8 7 -21 -19 -11 -24 -15 -47 -11 -64 5 -19 4 -25 -5 -20 -6 4 -9 11 -6 16
3 5 1 11 -4 15 -5 3 -14 -3 -20 -12 -9 -16 -10 -16 -11 4 0 12 -5 23 -12 25
-8 3 -7 13 4 35 15 30 14 43 -2 43 -14 0 -42 -78 -35 -99 4 -14 0 -27 -11 -38
-16 -16 -16 -15 -12 19 2 22 0 34 -6 31 -5 -4 -7 1 -3 11 4 10 7 24 7 32 0 9
5 12 10 9 6 -3 10 -1 10 4 0 14 -13 14 -28 -1 -14 -14 -15 -8 -3 25 7 18 6 24
-4 24 -8 0 -14 -3 -13 -6 0 -3 0 -17 -1 -31 -1 -18 -4 -21 -10 -12 -6 10 -10
7 -15 -13 -4 -15 -14 -34 -22 -42 -12 -13 -14 -10 -12 19 3 60 -2 98 -12 98
-5 0 -10 -9 -10 -20 0 -11 -4 -20 -10 -20 -5 0 -10 5 -10 10 0 18 -17 10 -28
-12 -6 -13 -11 -17 -11 -10 -1 20 -37 14 -54 -10 -15 -21 -16 -21 -16 -4 -1
29 -13 12 -17 -24 -2 -17 0 -29 5 -25 5 3 7 -4 4 -15 -6 -23 -23 -26 -41 -8
-15 15 -16 28 -2 28 6 0 10 -7 10 -15 0 -8 4 -15 9 -15 5 0 4 14 -2 32 -9 24
-9 32 1 35 6 3 12 17 11 31 0 26 -1 26 -9 5 -12 -29 -34 -31 -27 -3 3 11 1 18
-4 14 -5 -3 -9 -12 -9 -20 0 -8 -5 -12 -10 -9 -6 3 -13 -1 -16 -9 -8 -20 -24
-21 -24 -2 0 18 -29 14 -41 -5 -7 -12 -9 -12 -10 1 -1 8 -4 0 -8 -19 -3 -19
-11 -36 -17 -38 -24 -8 -23 30 1 78 14 27 21 49 15 49 -5 0 -10 -5 -10 -12 0
-9 -3 -9 -12 0 -7 7 -16 12 -21 12 -12 0 -38 -67 -31 -83 3 -8 1 -18 -5 -22
-6 -3 -11 0 -12 7 0 7 -4 4 -9 -7 -5 -11 -9 -14 -9 -7 -1 7 -5 11 -9 8 -4 -2
-6 12 -4 32 2 20 0 33 -5 27 -11 -14 -43 -18 -43 -5 0 6 11 15 25 20 24 9 35
30 15 30 -5 0 -10 -4 -10 -8 0 -5 -7 -9 -15 -9 -8 0 -15 7 -15 15 0 13 -3 13
-18 -1 -10 -10 -24 -17 -31 -17 -8 0 -11 -7 -7 -17 7 -17 6 -17 -9 -2 -15 15
-16 31 -6 162 23 309 12 798 -24 1077 -16 118 -20 143 -55 340 -25 141 -98
442 -110 454 -5 5 -6 15 -3 24 4 10 1 13 -8 10 -8 -3 -14 -17 -14 -31 1 -14
-3 -23 -7 -21 -4 3 -10 -7 -13 -21 -3 -14 -7 -36 -10 -49 -3 -14 1 -31 10 -40
8 -8 15 -24 15 -35 0 -12 5 -21 10 -21 6 0 10 -9 10 -19 0 -11 -4 -23 -10 -26
-5 -3 -10 -1 -10 4 0 6 -9 11 -20 11 -22 0 -29 35 -7 43 9 3 9 8 1 17 -9 9
-17 5 -33 -18 -26 -37 -26 -42 -1 -42 13 0 20 -7 20 -20 0 -13 -7 -20 -20 -20
-11 0 -20 5 -20 11 0 5 -5 7 -10 4 -21 -13 3 -27 36 -22 32 5 34 4 34 -21 0
-31 -9 -47 -29 -53 -11 -4 -10 -8 3 -22 16 -16 16 -17 -2 -17 -16 0 -19 -5
-15 -22 3 -17 2 -19 -5 -9 -7 10 -9 0 -7 -33 2 -30 0 -44 -7 -40 -15 9 -29
-18 -17 -33 8 -8 6 -19 -6 -35 l-16 -23 7 28 c5 21 3 27 -10 27 -9 0 -16 5
-16 12 0 6 -3 8 -7 4 -5 -4 1 -14 11 -22 16 -11 17 -16 6 -29 -10 -12 -10 -18
0 -30 9 -11 9 -15 1 -15 -7 0 -9 -4 -6 -10 3 -5 0 -10 -8 -10 -19 0 -41 -26
-28 -34 5 -3 12 -1 14 4 3 6 4 5 3 -2 -2 -7 -9 -12 -16 -10 -8 2 -11 -4 -8
-16 3 -12 -4 -30 -17 -46 -13 -15 -29 -41 -36 -59 -7 -17 -16 -34 -19 -37 -3
-3 -20 -28 -38 -57 -25 -38 -31 -58 -26 -77 3 -15 11 -23 17 -19 6 3 2 -5 -9
-19 -13 -18 -21 -22 -27 -14 -5 8 -12 5 -22 -8 -19 -26 -19 -29 6 -52 16 -15
22 -16 29 -5 9 15 40 8 40 -8 0 -6 -11 -18 -26 -27 -14 -10 -23 -23 -20 -31 3
-8 1 -11 -4 -8 -6 3 -11 0 -11 -7 -1 -7 -2 -18 -3 -25 -1 -10 -147 -205 -166
-223 -3 -3 -14 -18 -24 -33 -9 -16 -33 -46 -53 -68 -20 -22 -33 -45 -30 -53 4
-10 1 -13 -9 -9 -17 6 -19 -18 -3 -34 12 -12 0 -42 -16 -41 -12 2 -58 -63 -50
-70 2 -3 11 1 20 8 14 12 20 7 16 -14 -1 -4 3 -14 10 -22 9 -11 0 -25 -42 -67
-132 -132 -171 -176 -164 -188 5 -7 3 -10 -6 -7 -8 3 -22 -4 -32 -16 -10 -11
-30 -28 -45 -38 -16 -11 -21 -18 -12 -18 13 0 13 -2 1 -9 -8 -5 -16 -19 -18
-31 -2 -13 1 -19 8 -15 6 4 8 14 4 22 -4 13 -3 14 10 3 8 -7 15 -21 15 -32 0
-12 5 -18 13 -15 53 22 50 23 33 -11 -9 -17 -21 -34 -27 -38 -8 -4 -9 -3 -5 4
4 7 2 12 -3 12 -6 0 -11 -7 -11 -15 0 -26 -197 -211 -246 -231 -17 -7 -34 -20
-37 -29 -4 -8 -13 -15 -22 -15 -8 0 -15 -4 -15 -10 0 -5 -7 -10 -16 -10 -14 0
-14 -3 -4 -15 9 -11 15 -13 20 -5 4 7 10 11 14 11 23 -3 30 0 18 8 -11 7 -10
9 3 15 29 11 13 -27 -18 -42 -15 -7 -27 -19 -27 -27 0 -7 -11 -36 -25 -63 -14
-28 -25 -56 -25 -64 0 -17 -37 -58 -52 -58 -6 0 -1 12 13 26 l24 27 -22 -6
c-13 -3 -23 -1 -23 5 0 5 -5 6 -11 2 -7 -4 -9 -21 -6 -41 5 -28 3 -34 -8 -29
-8 3 -15 2 -15 -3 0 -10 -97 -84 -122 -94 -10 -3 -18 -16 -18 -27 0 -11 -6
-20 -12 -20 -10 0 -10 -2 -1 -8 9 -6 7 -12 -8 -25 -11 -10 -24 -15 -29 -12
-11 7 -36 -42 -27 -51 4 -4 15 -1 24 7 16 12 17 12 7 -1 -7 -8 -15 -31 -19
-50 -4 -19 -14 -45 -23 -58 -8 -12 -12 -25 -9 -28 3 -3 12 8 21 24 9 17 36 52
62 79 l47 48 -8 -34 c-5 -23 -4 -31 4 -27 7 4 11 0 11 -11 0 -19 -47 -43 -82
-43 -9 0 -18 -9 -21 -21 -5 -17 -3 -18 9 -8 21 17 28 4 16 -28 -7 -15 -10 -41
-8 -56 3 -27 2 -29 -25 -23 -35 7 -37 -7 -6 -37 24 -23 45 -63 27 -52 -6 4
-13 -7 -16 -22 -4 -19 -15 -33 -35 -42 -16 -7 -32 -23 -35 -36 -6 -24 -43 -55
-64 -55 -7 0 -9 9 -5 23 l7 22 -16 -21 c-8 -12 -29 -24 -46 -27 -23 -5 -29
-11 -27 -28 1 -16 -6 -24 -30 -33 -17 -6 -43 -21 -56 -33 -15 -13 -36 -20 -51
-19 -14 2 -34 -3 -43 -10 -17 -13 -17 -13 2 -14 15 -1 11 -5 -15 -18 -19 -9
-39 -27 -44 -38 -5 -12 -27 -32 -48 -45 -21 -13 -38 -27 -38 -32 0 -14 -27
-37 -43 -37 -8 0 -26 -9 -40 -20 -14 -11 -33 -20 -43 -20 -35 0 -105 -33 -100
-47 3 -7 1 -13 -5 -13 -10 0 -30 -42 -23 -49 2 -2 12 4 23 13 12 11 21 14 26
7 6 -10 -32 -31 -56 -31 -6 0 -17 -7 -25 -15 -9 -8 -24 -15 -35 -15 -10 0 -40
-14 -67 -31 -26 -17 -39 -28 -29 -25 9 3 17 1 17 -4 0 -18 -29 -10 -44 12 -9
12 -16 17 -16 10 0 -6 -7 -12 -15 -12 -9 0 -15 -6 -14 -12 3 -29 -3 -37 -33
-43 -29 -7 -70 -35 -51 -35 4 0 -7 -14 -26 -30 -18 -16 -38 -27 -44 -23 -6 4
-7 1 -2 -7 10 -15 -12 -30 -45 -30 -14 0 -36 -7 -49 -16 -14 -11 -34 -14 -54
-11 -18 3 -26 3 -19 0 6 -2 12 -11 12 -18 0 -7 6 -16 13 -18 6 -2 0 -3 -15 -1
-31 4 -39 -12 -10 -19 9 -3 2 -5 -15 -6 -25 -1 -33 -5 -33 -20 0 -18 -27 -37
-38 -26 -3 3 0 5 6 5 7 0 12 5 12 10 0 6 -7 10 -15 10 -8 0 -15 -7 -15 -15 0
-8 -4 -15 -9 -15 -5 0 -16 -3 -25 -6 -10 -4 -16 -1 -16 9 0 8 6 18 13 20 9 4
9 6 -1 6 -8 1 -16 -8 -19 -19 -4 -14 -14 -20 -36 -20 -17 0 -27 -3 -24 -7 10
-10 -13 -33 -34 -33 -10 0 -28 -13 -41 -30 -18 -25 -28 -30 -66 -30 -35 0 -42
-3 -34 -13 9 -10 4 -13 -19 -15 -32 -3 -71 -30 -62 -45 3 -5 -8 -6 -28 -2 -37
9 -42 9 -81 -1 -18 -4 -28 -2 -28 5 0 6 -7 11 -16 11 -8 0 -12 -5 -9 -10 7
-11 -17 -40 -33 -40 -5 0 -17 9 -26 19 -17 19 -17 19 4 14 20 -5 21 -4 11 15
-10 19 -9 21 5 15 12 -4 15 -3 10 5 -11 18 -34 14 -46 -8 -9 -16 -15 -18 -30
-10 -23 12 -33 13 -26 1 4 -5 -3 -7 -14 -4 -12 3 -22 -1 -26 -11 -3 -9 -10
-16 -15 -16 -14 0 -11 28 4 33 6 2 9 7 6 11 -12 13 -39 -6 -40 -28 0 -11 -3
-15 -6 -8 -2 6 -11 12 -18 12 -7 0 -16 10 -19 23 -6 21 -7 21 -20 5 -13 -18
-36 -24 -36 -10 0 4 -9 18 -19 32 l-19 24 -22 -24 c-19 -22 -21 -23 -17 -5 3
11 8 29 12 40 6 18 5 18 -5 3 -6 -9 -17 -15 -25 -12 -9 4 -19 -7 -30 -32 l-15
-37 -25 29 c-22 25 -26 27 -39 14 -17 -18 -56 -123 -56 -150 0 -11 5 -20 10
-20 6 0 10 -7 10 -15 0 -8 -4 -15 -10 -15 -5 0 -10 7 -10 15 0 8 -4 15 -10 15
-9 0 -23 -26 -67 -130 -34 -77 -97 -201 -105 -206 -5 -4 -12 3 -15 15 -3 11
-9 18 -14 15 -5 -3 0 -18 11 -34 21 -30 26 -65 10 -75 -13 -8 -13 -42 0 -47 6
-2 6 -8 0 -18 -8 -13 -10 -12 -10 3 0 29 -14 19 -34 -26 -17 -40 -74 -99 -60
-62 9 22 -18 19 -38 -4 -9 -11 -14 -22 -11 -24 2 -3 -8 -25 -23 -49 -16 -24
-28 -57 -28 -75 0 -29 -3 -33 -28 -33 -26 0 -28 3 -28 40 0 43 -9 47 -60 29
-21 -7 -19 -8 13 -4 35 4 37 2 37 -25 0 -24 -3 -27 -21 -23 -16 4 -17 8 -7 14
8 6 -5 9 -34 9 -27 0 -48 4 -48 8 0 5 -29 15 -65 22 -36 7 -65 17 -65 22 0 4
-8 8 -17 8 -15 0 -16 2 -3 10 11 7 8 10 -16 10 -32 0 -84 20 -84 33 0 4 -11 7
-25 7 -14 0 -25 5 -25 10 0 6 -7 10 -15 10 -9 0 -18 7 -21 15 -4 8 -10 12 -15
10 -10 -7 -82 31 -113 58 -11 9 -30 17 -43 17 -29 0 -29 15 -1 77 12 26 25 59
28 73 3 14 11 24 18 22 17 -3 15 53 -3 68 -20 17 -19 43 5 87 11 21 20 45 20
54 0 8 14 31 30 49 17 19 33 45 36 57 4 13 10 23 15 23 5 0 6 7 3 15 -5 13 22
82 57 147 5 10 9 25 9 33 0 8 3 15 8 15 7 0 21 27 41 83 6 15 23 54 37 85 15
31 31 66 36 77 7 16 3 32 -17 68 -16 28 -21 45 -13 42 9 -4 13 6 14 36 0 22 5
43 11 47 6 4 17 27 24 52 7 25 27 68 45 95 17 28 37 68 44 90 7 22 19 46 27
54 8 7 12 20 9 28 -3 7 1 16 9 19 8 4 15 19 15 34 0 16 4 30 8 32 5 2 21 34
36 72 15 38 34 79 42 90 8 11 14 33 14 48 0 15 5 30 10 33 10 6 110 206 110
220 0 3 7 13 15 21 8 8 19 32 25 52 15 54 33 77 26 32 -5 -25 -3 -31 5 -23 6
6 12 33 14 59 5 66 26 136 47 154 13 12 18 36 21 108 2 50 0 92 -5 92 -12 0
-10 78 2 85 6 3 10 25 10 48 1 23 7 73 14 110 9 49 10 81 3 117 -8 41 -6 59 8
96 12 32 17 71 16 126 -1 44 2 85 8 91 10 13 19 82 27 205 3 45 10 82 15 82 5
0 9 11 9 24 0 13 6 26 12 28 10 4 10 15 0 56 -15 55 -10 75 13 65 12 -4 15 3
15 31 0 27 -4 36 -16 36 -14 0 -14 2 -3 16 7 9 14 23 15 32 11 73 14 92 23
132 6 25 10 65 11 90 0 26 5 51 12 58 9 9 9 12 0 12 -20 0 -14 58 7 69 15 9
18 21 16 90 -1 47 2 78 7 75 5 -3 8 15 8 43 -3 70 10 215 21 235 5 9 9 27 9
40 0 13 0 44 0 70 0 26 5 50 10 53 6 3 10 45 11 93 0 58 3 80 9 67 8 -18 9
-17 9 8 1 18 -3 26 -10 21 -7 -4 -9 0 -5 12 7 23 17 99 23 177 3 31 9 57 14
57 5 0 9 23 9 51 0 27 4 80 10 117 19 131 29 672 17 922 -4 74 -14 196 -22
270 -9 74 -18 151 -20 170 -8 68 -26 174 -31 182 -4 5 -6 25 -6 44 0 19 -4 34
-9 34 -5 0 1 14 13 30 19 26 20 34 10 51 -7 11 -10 24 -7 29 4 6 2 10 -2 10
-5 0 -10 12 -11 26 -1 14 -5 31 -9 37 -4 7 -9 21 -10 32 -2 11 -7 31 -13 45
-5 14 -29 106 -54 205 -62 250 -111 390 -157 457 -11 15 -18 39 -17 55 1 16
-2 34 -6 41 -4 7 -3 19 4 27 9 10 9 19 0 36 -9 17 -9 23 0 29 9 6 9 13 1 29
-7 12 -9 26 -6 31 3 5 -8 64 -24 132 -48 200 -63 288 -66 378 -2 47 -3 88 -4
93 -1 9 -238 0 -361 -13 -98 -11 -156 -13 -147 -4 7 8 -15 33 -25 28 -4 -2 -9
5 -13 16 -3 11 -17 23 -31 26 -13 3 -22 10 -19 15 3 4 -4 13 -16 20 -16 8 -18
13 -9 19 9 6 8 11 -7 19 -21 11 -51 50 -55 73 -2 7 -8 17 -14 23 -21 19 -20
40 5 65 13 14 21 18 17 10 -4 -9 -1 -8 7 3 29 35 505 178 767 231 344 69 781
110 1055 100 44 -2 145 -6 225 -9z m-5336 -736 c-3 -5 -10 -7 -15 -3 -5 3 -7
10 -3 15 3 5 10 7 15 3 5 -3 7 -10 3 -15z m8040 -580 c-8 -13 -24 -1 -24 18 0
13 3 13 15 3 8 -7 12 -16 9 -21z m-6757 -276 c-3 -10 -5 -4 -5 12 0 17 2 24 5
18 2 -7 2 -21 0 -30z m-197 -75 c0 -25 -3 -29 -10 -18 -6 10 -10 11 -10 3 0
-7 -7 -13 -15 -13 -12 0 -13 4 -3 25 6 13 15 22 19 19 5 -3 9 0 9 5 0 6 2 11
5 11 3 0 5 -15 5 -32z m-9 -65 c12 -15 12 -16 -3 -10 -11 4 -18 2 -18 -6 0
-13 -20 12 -20 26 0 13 27 7 41 -10z m675 -141 c-4 -3 -11 0 -16 8 -15 24 -11
33 6 15 9 -9 13 -19 10 -23z m43 -52 c1 -13 0 -13 -9 0 -5 8 -9 24 -9 35 l0
20 9 -20 c5 -11 9 -27 9 -35z m61 -18 c0 -15 -2 -15 -10 -2 -13 20 -13 33 0
25 6 -3 10 -14 10 -23z m89 -39 l13 -28 -21 22 c-23 24 -26 33 -13 33 5 0 14
-12 21 -27z m-82 -25 c-3 -8 -6 -5 -6 6 -1 11 2 17 5 13 3 -3 4 -12 1 -19z
m6480 -460 c-3 -8 -6 -5 -6 6 -1 11 2 17 5 13 3 -3 4 -12 1 -19z m-6097 -62
c-7 -7 -15 -5 -22 3 -11 10 -10 11 5 5 14 -5 16 -2 11 12 -5 16 -4 16 5 4 6
-9 7 -18 1 -24z m6110 -56 c0 -5 -5 -10 -11 -10 -5 0 -7 5 -4 10 3 6 8 10 11
10 2 0 4 -4 4 -10z m-15990 -50 c0 -22 -4 -40 -10 -40 -5 0 -14 -15 -19 -32
l-9 -33 0 43 c0 23 5 42 10 42 6 0 8 7 4 15 -6 18 2 45 15 45 5 0 9 -18 9 -40z
m10821 -140 c106 -745 28 -1765 -202 -2640 -105 -398 -335 -1060 -362 -1043
-6 4 -8 0 -4 -10 3 -10 2 -17 -3 -17 -5 0 -7 -7 -4 -15 4 -8 1 -15 -5 -15 -6
0 -11 -7 -11 -15 0 -8 -4 -15 -9 -15 -5 0 -14 -14 -20 -32 -14 -38 -24 -30
-25 20 -1 49 -15 55 -36 14 -11 -19 -20 -28 -22 -20 -4 10 -8 10 -22 -1 -15
-12 -16 -12 -10 5 4 10 13 28 21 39 15 23 18 47 2 25 -9 -12 -10 -11 -6 5 3
11 8 29 11 40 3 11 -6 -6 -21 -38 -14 -32 -31 -56 -37 -54 -10 4 -11 86 0 132
4 20 -12 -10 -41 -75 -26 -58 -42 -82 -49 -72 -3 6 -2 21 3 34 15 40 23 116
12 122 -5 3 -17 -19 -27 -50 -9 -31 -23 -58 -31 -61 -7 -3 -10 -9 -7 -15 5 -7
-22 -78 -29 -78 -2 0 -3 10 -3 23 0 12 -1 45 -2 72 l-2 50 -25 -50 -25 -50 6
60 c7 73 7 63 5 105 -2 34 -2 34 -22 -20 -11 -30 -29 -75 -40 -100 l-19 -45 4
73 c3 46 10 82 21 99 14 21 15 27 4 34 -10 7 -11 11 -3 17 6 4 15 23 19 42 10
50 -7 27 -36 -47 -13 -35 -28 -63 -32 -63 -5 0 -7 -6 -4 -13 3 -7 -3 -27 -12
-45 l-17 -33 -1 35 c-1 20 2 34 6 32 4 -3 7 3 7 12 1 9 4 31 8 47 l6 30 -11
-29 c-9 -22 -14 -25 -21 -15 -6 8 -11 10 -14 4 -2 -5 -15 -32 -28 -60 l-24
-50 -1 42 c-1 23 6 69 15 103 20 80 13 111 -9 40 -10 -30 -22 -64 -27 -75 -6
-11 -21 -47 -35 -80 -27 -64 -27 -60 -5 69 5 33 10 76 9 95 0 36 0 36 -17 -14
-9 -27 -21 -56 -25 -62 -5 -7 -6 -17 -3 -22 4 -5 3 -11 -1 -13 -5 -1 -18 -23
-29 -48 l-21 -45 4 55 c3 30 11 81 19 113 8 32 14 73 14 90 -1 24 -9 10 -35
-62 -19 -51 -36 -95 -39 -98 -2 -3 -12 9 -21 26 -8 17 -11 31 -6 31 12 0 20
33 26 100 l5 55 -24 -65 c-13 -36 -34 -94 -47 -130 -27 -75 -27 -75 -35 -68
-8 8 15 161 25 168 4 3 11 37 14 75 7 70 6 69 -53 -104 -33 -95 -61 -176 -64
-178 -3 -3 -4 9 -4 26 1 19 5 28 12 24 6 -3 5 0 -1 8 -15 15 -18 33 -5 25 5
-3 8 8 7 24 -1 17 1 30 4 30 3 0 7 14 8 30 0 17 2 46 3 65 1 19 6 35 11 35 5
0 9 5 9 12 0 49 -65 -107 -126 -302 -13 -42 -33 -83 -34 -69 0 4 6 22 14 40 7
19 16 64 20 101 3 37 13 85 21 107 8 22 15 62 17 88 2 27 9 54 16 61 6 7 12
30 11 50 -1 43 4 55 -86 -223 -29 -92 -49 -141 -51 -126 -2 13 2 44 8 70 7 25
14 55 15 66 2 11 8 47 15 80 6 33 13 74 15 90 1 17 6 48 9 70 7 43 9 49 -92
-268 -36 -115 -59 -172 -63 -160 -3 10 -3 30 2 45 4 15 5 37 2 49 -5 17 -3 20
7 14 10 -6 12 -4 7 8 -9 23 44 211 55 195 6 -8 8 4 5 34 -2 26 -1 45 4 42 5
-3 9 6 9 20 0 61 -20 24 -60 -112 -64 -216 -95 -303 -105 -295 -4 5 -5 0 -2
-9 7 -20 -1 -48 -13 -48 -10 0 4 66 30 140 10 30 21 79 25 107 4 29 11 55 16
59 5 3 9 35 10 72 0 50 3 62 10 47 8 -17 8 -15 4 8 -3 15 -2 27 3 27 4 0 9 19
11 42 1 23 4 45 7 49 2 4 0 10 -5 13 -5 3 -11 -9 -15 -27 -19 -95 -130 -437
-137 -425 -5 7 -4 15 2 19 5 3 7 13 4 21 -4 9 -2 19 4 23 6 3 11 23 11 43 0
20 5 55 11 77 6 22 14 58 19 80 19 84 23 100 30 110 4 6 6 18 5 27 -2 9 3 34
11 55 7 21 13 57 14 80 0 23 4 43 9 45 5 2 14 32 20 68 22 147 34 207 47 238
8 18 14 50 14 70 0 21 4 42 9 48 5 5 12 27 16 49 13 90 24 143 43 208 12 38
21 81 21 95 1 57 14 127 25 134 8 6 7 8 -2 8 -10 0 -9 5 2 23 7 12 14 36 14
52 0 17 6 50 12 75 6 25 13 59 16 75 2 17 8 44 14 60 10 32 5 -72 -10 -195 -8
-68 4 -109 14 -46 3 20 8 52 11 71 4 21 12 35 20 35 8 0 15 5 15 11 0 5 -5 7
-12 3 -8 -5 -9 -2 -5 10 4 10 7 24 7 32 0 9 5 12 12 8 8 -5 9 3 5 29 -3 21 -2
37 3 37 13 0 28 76 34 177 0 12 4 19 8 15 3 -4 3 -52 -2 -107 -5 -55 -12 -138
-16 -185 -8 -94 0 -103 17 -19 11 59 12 60 29 169 6 41 18 104 25 140 8 36 17
86 21 113 3 26 11 47 16 47 6 0 7 -54 4 -142 -6 -142 6 -169 19 -45 4 31 10
57 14 57 3 0 7 25 7 56 1 31 5 59 10 63 5 3 8 29 8 56 -2 47 20 164 36 194 4
7 6 -45 4 -115 -1 -71 0 -118 3 -104 5 23 6 24 13 5 4 -12 8 15 8 64 1 46 6
88 11 95 5 6 9 38 10 70 0 33 4 62 9 65 5 3 12 42 16 86 9 115 26 120 26 7 0
-75 -3 -92 -15 -92 -9 0 -15 -9 -15 -22 l0 -23 19 25 19 25 6 -25 c3 -14 7
-34 9 -45 3 -11 5 -1 6 23 0 23 -3 42 -9 42 -5 0 -8 24 -7 54 1 30 6 51 11 48
5 -3 6 9 3 29 -4 20 -3 29 2 21 7 -11 9 -11 14 1 3 8 1 19 -5 25 -8 8 -8 19 0
39 6 15 14 47 17 70 4 23 14 48 22 55 15 12 16 10 10 -17 -6 -35 6 -65 18 -45
4 6 9 39 12 73 3 34 11 67 18 72 6 6 14 17 18 25 3 9 6 3 7 -15 1 -16 3 -34 5
-40 1 -5 3 -44 5 -85 l3 -75 8 75 c4 41 10 111 14 155 4 44 8 81 9 81 0 1 11
5 24 8 21 7 22 5 22 -53 0 -34 4 -61 10 -61 11 0 14 24 11 83 -2 28 1 37 13
37 16 0 21 32 17 115 -2 29 -1 29 14 11 8 -11 15 -27 15 -35 0 -14 1 -14 10
-1 6 9 6 18 0 24 -6 6 -10 19 -10 31 0 16 2 17 10 5 8 -12 10 -10 10 10 0 45
24 180 32 180 8 0 14 -22 23 -94 4 -31 10 -45 16 -39 6 6 6 27 -1 59 -8 35 -8
50 0 52 6 2 8 17 4 37 -3 19 -1 35 5 39 6 4 11 29 11 57 0 61 15 64 24 5 4
-24 15 -50 24 -58 16 -12 16 -11 2 6 -13 16 -12 20 2 30 12 9 17 30 19 77 1
36 -2 63 -7 62 -6 -1 -11 7 -11 18 -1 10 3 19 8 19 6 0 7 -4 4 -10 -3 -5 -1
-10 4 -10 6 0 11 2 11 4 0 2 3 12 7 22 4 12 3 15 -5 10 -24 -15 -11 2 14 19
15 9 23 12 20 6 -4 -6 -2 -11 3 -11 6 0 11 7 11 16 0 8 4 13 9 10 5 -4 11 -2
13 2 5 12 182 87 263 110 113 33 156 40 230 39 l70 -2 16 -115z m5246 94 c-3
-3 -12 -4 -19 -1 -8 3 -5 6 6 6 11 1 17 -2 13 -5z m8 -74 c3 -5 1 -10 -4 -10
-6 0 -11 5 -11 10 0 6 2 10 4 10 3 0 8 -4 11 -10z m-6185 -580 c0 -11 -4 -20
-9 -20 -5 0 -7 9 -4 20 3 11 7 20 9 20 2 0 4 -9 4 -20z m-3 -82 c-3 -8 -6 -5
-6 6 -1 11 2 17 5 13 3 -3 4 -12 1 -19z m-11 -55 c-11 -11 -17 4 -9 23 7 18 8
18 11 1 2 -10 1 -21 -2 -24z m-69 -75 c-3 -7 -5 -2 -5 12 0 14 2 19 5 13 2 -7
2 -19 0 -25z m-77 -73 c0 -8 -4 -15 -10 -15 -5 0 -7 7 -4 15 4 8 8 15 10 15 2
0 4 -7 4 -15z m-263 -672 c-3 -10 -5 -2 -5 17 0 19 2 27 5 18 2 -10 2 -26 0
-35z m6623 -133 c0 -5 -5 -10 -11 -10 -5 0 -7 5 -4 10 3 6 8 10 11 10 2 0 4
-4 4 -10z m-73 -242 c-3 -8 -6 -5 -6 6 -1 11 2 17 5 13 3 -3 4 -12 1 -19z
m-9567 -12 c0 -3 -4 -8 -10 -11 -5 -3 -10 -1 -10 4 0 6 5 11 10 11 6 0 10 -2
10 -4z m-60 -411 c-35 -244 -56 -458 -71 -715 -15 -257 -6 -905 16 -1150 9
-102 17 -219 18 -261 1 -43 5 -75 10 -72 4 2 7 -7 7 -21 0 -14 -5 -26 -10 -26
-6 0 -2 -12 7 -27 11 -17 13 -24 5 -19 -11 6 -13 -4 -11 -50 1 -39 -3 -69 -14
-89 -9 -16 -16 -26 -17 -22 0 4 -9 3 -19 -3 -17 -9 -20 -21 -20 -85 0 -41 -3
-80 -7 -86 -4 -8 1 -9 17 -5 13 3 18 3 12 0 -7 -3 -13 -13 -13 -23 0 -9 -13
-25 -30 -34 -25 -15 -30 -24 -30 -58 0 -21 5 -39 10 -39 6 0 10 -18 10 -40 0
-29 -4 -40 -15 -40 -8 0 -15 -5 -15 -11 0 -6 -9 -9 -20 -6 -15 4 -20 0 -20
-16 0 -18 2 -19 10 -7 9 13 10 13 10 0 0 -13 1 -13 10 0 6 10 10 11 10 3 0
-15 46 -17 55 -3 3 6 11 10 17 10 7 0 6 -6 -2 -15 -11 -13 -8 -15 19 -15 35 0
71 -15 71 -30 0 -5 -13 -22 -29 -37 -24 -23 -28 -34 -24 -60 8 -47 63 -51 63
-3 0 13 1 13 10 0 5 -8 10 -25 10 -38 0 -14 4 -21 11 -17 6 4 22 -4 37 -16 14
-13 20 -16 13 -6 -13 17 -13 17 11 7 20 -10 24 -18 24 -50 -1 -21 2 -36 7 -33
4 2 7 -2 8 -9 0 -7 2 -20 4 -28 2 -8 19 -82 39 -165 102 -444 248 -955 391
-1369 29 -81 40 -126 32 -123 -8 3 -14 -1 -14 -8 0 -7 7 -11 14 -8 13 5 15
-16 3 -27 -14 -13 -50 -70 -49 -77 3 -20 -2 -27 -12 -13 -8 12 -9 10 -4 -8 5
-16 1 -28 -12 -38 -13 -11 -15 -17 -5 -20 16 -7 5 -25 -11 -18 -7 2 -23 -7
-36 -22 -18 -21 -20 -28 -10 -35 11 -7 10 -9 -3 -9 -24 0 -48 -28 -42 -48 5
-14 4 -15 -5 -2 -6 8 -11 11 -12 5 -1 -5 -3 -14 -4 -20 -2 -5 -3 -17 -4 -25 0
-8 -12 -28 -26 -43 -22 -23 -23 -27 -8 -27 17 -1 17 -1 0 -11 -9 -5 -21 -8
-26 -4 -5 3 -12 1 -16 -5 -3 -5 -1 -10 4 -10 6 0 11 -5 11 -11 0 -6 -7 -9 -14
-6 -10 4 -13 1 -10 -7 8 -21 -23 -45 -47 -39 -19 5 -21 3 -17 -15 4 -12 1 -22
-4 -22 -6 0 -5 -6 2 -15 8 -10 9 -15 2 -15 -6 0 -9 -6 -6 -14 3 -8 1 -17 -5
-21 -6 -3 -11 -1 -11 5 0 7 -7 5 -16 -4 -8 -9 -12 -20 -9 -26 3 -5 0 -10 -7
-10 -7 -1 -23 -21 -35 -46 -13 -25 -18 -42 -13 -39 6 3 10 1 10 -4 0 -6 -9
-11 -19 -11 -29 0 -52 -11 -45 -21 3 -5 -13 -27 -35 -48 -23 -22 -41 -49 -41
-60 0 -23 -15 -28 -23 -8 -4 8 -6 7 -7 -3 -1 -8 -4 -24 -7 -35 -3 -11 -5 -31
-5 -45 0 -22 -1 -23 -12 -8 -16 21 -48 17 -56 -8 -5 -14 -15 4 -39 66 -18 47
-48 123 -66 170 -18 47 -41 108 -50 135 l-18 50 52 137 c90 240 149 482 188
768 15 110 18 201 18 500 -1 493 -24 701 -106 937 -16 46 -29 90 -29 99 0 8
-5 12 -10 9 -6 -4 -9 -3 -8 2 2 4 -16 45 -39 89 -35 67 -39 81 -25 81 50 0 52
2 52 43 l0 40 -40 0 c-38 0 -40 -1 -40 -32 0 -32 -1 -32 -34 24 -69 114 -164
248 -351 498 -105 140 -206 277 -225 304 l-33 50 21 177 c12 97 32 229 44 292
18 99 24 116 42 120 12 3 42 13 68 22 52 19 67 16 243 -49 106 -39 155 -35
180 15 24 45 19 103 -11 138 -22 27 -32 31 -74 31 -68 0 -79 16 -58 88 9 32
37 116 62 189 75 210 78 323 12 471 -41 95 -46 147 -16 185 11 14 20 38 20 54
0 16 19 58 44 97 43 68 44 70 27 95 -9 14 -11 22 -4 18 15 -9 93 29 93 45 0 6
3 8 6 5 7 -7 123 70 184 122 19 16 36 28 37 27 1 -1 -11 -92 -27 -201z m2760
93 c0 -73 -55 -399 -112 -678 -46 -219 -54 -256 -86 -375 -82 -308 -142 -485
-142 -420 0 8 4 15 9 15 8 0 16 39 26 115 4 28 24 103 40 150 12 34 20 81 28
158 1 9 4 17 7 17 3 0 6 21 8 47 1 25 6 51 11 57 5 6 14 38 21 71 7 33 16 69
21 80 11 26 39 163 39 193 0 12 4 22 8 22 4 0 8 8 9 18 2 49 28 172 35 172 5
0 7 4 4 8 -3 5 -1 26 5 47 19 66 26 108 45 263 4 28 11 52 15 52 5 0 9 -6 9
-12z m-3116 -89 c-4 -8 1 -9 17 -4 24 7 24 7 4 -13 -15 -15 -29 -18 -59 -15
l-39 6 39 18 c47 22 47 22 38 8z m2957 -415 c-18 -100 -47 -243 -86 -416 -8
-37 -22 -88 -31 -113 -8 -26 -16 -55 -17 -66 -1 -10 -4 -19 -8 -19 -12 0 -2
72 11 80 6 4 10 16 9 26 -2 11 6 55 18 99 27 101 70 300 78 359 8 64 25 148
30 157 15 23 14 -2 -4 -107z m-88 -39 c-3 -9 -8 -14 -10 -11 -3 3 -2 9 2 15 9
16 15 13 8 -4z m-2923 -30 c9 -8 20 -12 24 -8 4 5 6 4 5 -2 -2 -5 7 -29 19
-52 15 -30 22 -60 22 -101 0 -66 -31 -167 -57 -189 -10 -8 -12 -11 -4 -7 9 5
12 3 7 -4 -12 -20 -21 -14 -46 31 -13 23 -31 47 -39 54 -11 8 -12 12 -3 13 6
0 12 7 12 16 0 8 -4 12 -10 9 -6 -4 -9 14 -7 50 1 42 -1 54 -11 50 -10 -4 -12
9 -7 58 3 34 10 64 15 65 6 2 10 10 10 18 0 9 -5 12 -12 8 -6 -4 -8 -3 -5 3 9
14 67 6 87 -12z m2902 -67 c-6 -6 -7 0 -4 19 5 21 7 23 10 9 2 -10 0 -22 -6
-28z m2935 -40 c-3 -7 -5 -2 -5 12 0 14 2 19 5 13 2 -7 2 -19 0 -25z m-2970
-150 c-3 -7 -5 -2 -5 12 0 14 2 19 5 13 2 -7 2 -19 0 -25z m6656 -25 c-12 -30
-43 -56 -43 -35 0 9 38 52 45 52 2 0 1 -8 -2 -17z m-6668 -33 c-4 -17 -9 -30
-11 -27 -2 2 -1 18 2 36 4 17 9 30 11 27 3 -2 2 -19 -2 -36z m0 -300 c-12 -39
-14 -40 -9 -10 8 49 16 77 21 65 2 -6 -4 -30 -12 -55z m7660 -89 c3 -5 1 -12
-5 -16 -5 -3 -10 1 -10 9 0 18 6 21 15 7z m-7688 -23 c-3 -8 -6 -5 -6 6 -1 11
2 17 5 13 3 -3 4 -12 1 -19z m7467 -14 c3 -8 2 -12 -4 -9 -6 3 -10 10 -10 16
0 14 7 11 14 -7z m517 -42 c-6 -2 -11 -15 -11 -28 0 -14 -4 -22 -10 -19 -16
10 -12 47 8 65 15 15 17 15 21 1 2 -8 -2 -17 -8 -19z m-10923 -8 c36 -23 25
-36 -15 -18 -21 9 -44 18 -50 21 -7 3 -13 10 -13 15 0 13 47 2 78 -18z m10735
-29 c-17 -36 -35 -41 -41 -12 -2 11 3 17 16 17 11 0 22 7 26 15 3 8 8 15 11
15 2 0 -3 -16 -12 -35z m294 -17 c-3 -7 -5 -2 -5 12 0 14 2 19 5 13 2 -7 2
-19 0 -25z m-7467 -28 c0 -5 -2 -10 -4 -10 -3 0 -8 5 -11 10 -3 6 -1 10 4 10
6 0 11 -4 11 -10z m7682 -29 c-5 -23 -6 -24 -13 -6 -11 29 -11 32 4 32 9 0 12
-9 9 -26z m-7715 -13 c-3 -8 -6 -5 -6 6 -1 11 2 17 5 13 3 -3 4 -12 1 -19z
m7790 -10 c-3 -7 -5 -2 -5 12 0 14 2 19 5 13 2 -7 2 -19 0 -25z m-7560 -30
c-3 -8 -6 -5 -6 6 -1 11 2 17 5 13 3 -3 4 -12 1 -19z m7557 -10 c-3 -4 -11 -5
-19 -1 -21 7 -19 12 4 10 11 0 18 -5 15 -9z m-8089 -18 c3 -5 1 -10 -4 -10 -6
0 -11 5 -11 10 0 6 2 10 4 10 3 0 8 -4 11 -10z m962 -17 c-2 -5 -11 -25 -21
-45 -9 -21 -19 -38 -21 -38 -4 0 14 71 22 83 2 4 9 7 14 7 6 0 8 -3 6 -7z
m-1046 -30 c-12 -20 -14 -14 -5 12 4 9 9 14 11 11 3 -2 0 -13 -6 -23z m66 -5
c-3 -8 -6 -5 -6 6 -1 11 2 17 5 13 3 -3 4 -12 1 -19z m740 0 c-3 -8 -6 -5 -6
6 -1 11 2 17 5 13 3 -3 4 -12 1 -19z m350 -50 c-3 -8 -6 -5 -6 6 -1 11 2 17 5
13 3 -3 4 -12 1 -19z m-100 -50 c-3 -8 -6 -5 -6 6 -1 11 2 17 5 13 3 -3 4 -12
1 -19z m-9551 -105 c-7 -7 -66 56 -66 70 0 6 16 -7 36 -27 20 -20 33 -40 30
-43z m3484 -53 c0 -5 -4 -10 -10 -10 -5 0 -10 5 -10 10 0 6 5 10 10 10 6 0 10
-4 10 -10z m5259 -34 c-9 -8 -10 -7 -5 7 3 10 7 24 7 30 1 7 3 4 6 -7 3 -10
-1 -23 -8 -30z m-59 16 c0 -5 -3 -12 -6 -15 -4 -4 -15 -30 -25 -59 -10 -29
-18 -53 -19 -54 0 0 7 -1 15 -1 8 0 13 2 10 5 -6 6 28 49 59 73 l24 19 -18
-49 c-19 -53 -16 -74 7 -41 8 11 21 20 29 20 8 0 17 13 21 30 3 17 9 30 14 30
4 0 4 -12 0 -27 -5 -16 -16 -52 -24 -80 -12 -40 -13 -54 -4 -59 7 -4 9 -4 5 1
-10 11 11 47 23 40 5 -4 9 3 9 13 0 18 27 38 37 29 3 -4 -11 -51 -33 -102 -7
-18 -6 -18 9 -6 9 7 17 10 17 5 0 -4 6 0 13 11 19 25 32 2 19 -33 -20 -53 -21
-60 -7 -66 9 -3 19 4 26 16 7 13 7 18 1 14 -6 -3 -14 -1 -18 5 -4 8 -3 9 4 5
6 -4 17 2 24 14 7 11 16 20 20 20 14 0 9 -25 -17 -88 -32 -80 -33 -100 -2 -72
19 19 22 19 25 5 2 -9 -6 -39 -17 -66 -18 -41 -20 -53 -10 -72 12 -22 12 -22
25 8 7 17 13 23 14 13 0 -9 -12 -40 -26 -70 -15 -29 -38 -75 -52 -102 -19 -39
-23 -59 -18 -92 5 -36 -1 -55 -44 -140 -28 -55 -50 -105 -50 -111 0 -7 -5 -13
-11 -13 -6 0 -9 -9 -6 -20 3 -11 1 -23 -4 -26 -5 -3 -9 -16 -9 -30 0 -32 -51
-125 -64 -117 -6 3 -8 3 -4 -1 10 -12 -121 -236 -143 -244 -5 -2 -9 -8 -9 -14
0 -11 -6 -19 -183 -243 -72 -90 -324 -319 -375 -341 -16 -6 -34 -18 -38 -26
-13 -21 -66 -56 -97 -63 -15 -4 -27 -11 -27 -15 0 -5 -10 -12 -22 -16 -13 -4
-26 -11 -29 -16 -3 -4 -15 -10 -27 -13 -12 -2 -27 -7 -33 -11 -6 -3 -15 0 -20
7 -7 11 -9 11 -9 -2 0 -9 -10 -19 -22 -22 -13 -3 -34 -9 -47 -13 -18 -5 -22
-4 -16 5 6 10 3 11 -15 1 -18 -10 -24 -9 -31 1 -7 12 -9 12 -9 0 0 -8 -3 -12
-6 -8 -4 3 -14 -1 -23 -10 -15 -15 -16 -15 -19 0 -3 15 -6 16 -25 2 -25 -17
-47 -20 -47 -4 0 5 5 7 12 3 7 -4 8 -3 4 4 -5 9 -13 9 -27 2 -15 -9 -21 -7
-25 5 -4 9 -13 14 -20 11 -7 -3 -16 -1 -19 4 -4 6 -15 10 -25 10 -13 0 -17 5
-14 15 7 17 -11 21 -21 5 -12 -20 -26 -10 -15 10 15 29 1 48 -18 24 -13 -17
-14 -15 -8 26 4 34 3 41 -5 28 -14 -24 -29 -23 -29 3 0 11 5 17 10 14 6 -3 10
4 10 17 l-1 23 -19 -24 c-24 -28 -24 -26 -5 29 19 55 19 57 -5 35 -20 -18 -21
-18 -14 1 6 18 26 67 46 109 7 16 5 16 -11 -4 l-21 -23 2 28 c1 16 15 50 30
75 15 25 28 52 28 60 0 8 -8 1 -18 -16 -21 -33 -52 -63 -52 -48 0 5 5 14 11
20 6 6 12 17 13 24 7 32 34 81 39 70 4 -7 4 -7 2 1 -1 7 6 28 17 46 34 55 12
47 -26 -10 -20 -29 -36 -50 -36 -46 0 10 54 129 96 211 42 84 44 109 3 42 -66
-106 -61 -82 13 65 26 52 48 101 48 108 0 6 4 12 9 12 5 0 17 22 26 49 9 27
29 67 44 88 15 21 38 59 51 85 13 27 25 46 27 44 3 -2 -3 -18 -11 -34 -9 -17
-25 -54 -36 -84 -20 -51 -20 -52 -1 -28 11 13 17 28 15 32 -3 4 0 8 5 8 6 0
23 24 37 53 15 28 39 70 53 92 15 22 33 53 41 68 23 45 23 15 0 -37 -23 -55
-23 -56 -10 -56 5 0 12 11 16 24 3 14 14 32 25 42 10 9 19 21 19 26 0 5 15 30
33 57 17 26 38 57 44 67 11 16 3 -9 -24 -73 -3 -7 -1 -13 3 -13 11 1 74 101
74 118 0 7 9 23 20 35 11 12 18 28 15 36 -3 9 -3 12 1 8 4 -4 18 11 32 34 24
40 44 49 23 11 -18 -34 -12 -47 9 -22 11 13 20 31 20 41 0 10 7 24 15 32 8 8
11 17 8 21 -4 3 -1 6 5 6 7 0 12 7 12 15 0 8 3 15 8 15 4 0 16 19 27 43 31 65
67 128 71 124 2 -2 -5 -27 -16 -57 -23 -62 -20 -75 6 -31 10 17 23 31 28 31 5
0 6 3 3 7 -4 3 2 16 13 28 12 13 22 32 23 44 1 11 5 21 10 21 4 0 13 14 18 30
6 17 15 30 19 30 5 0 0 -25 -11 -57 -10 -31 -19 -66 -18 -77 1 -19 2 -18 9 4
4 14 8 21 9 15 1 -12 41 66 41 81 0 6 7 17 15 24 9 7 28 37 42 67 15 29 28 51
30 49 3 -2 -7 -36 -21 -76 -29 -81 -33 -114 -7 -57 10 20 21 34 24 30 4 -3 7
3 7 15 0 12 11 29 24 37 13 9 26 28 30 43 6 32 23 59 30 51 3 -3 -8 -40 -24
-83 l-29 -78 25 23 c13 12 24 30 24 40 0 10 5 21 11 24 5 4 14 18 20 32 5 13
13 22 18 19 5 -3 16 10 25 29 27 56 27 41 1 -32 -14 -37 -22 -69 -20 -72 7 -6
34 31 35 47 0 6 4 12 9 12 5 0 15 15 22 33 7 17 21 38 31 45 10 7 16 18 13 23
-4 5 1 16 9 25 21 20 20 15 -4 -46 -26 -66 -25 -76 3 -57 12 8 21 21 19 27 -1
6 2 9 7 5 6 -3 19 12 31 35 11 22 22 40 25 40 2 0 -8 -36 -24 -80 -17 -49 -23
-76 -15 -69 8 6 14 17 14 24 0 7 11 20 24 30 13 10 30 37 37 59 7 23 19 51 27
64 14 22 32 30 32 14z m-229 -29 c-12 -20 -14 -14 -5 12 4 9 9 14 11 11 3 -2
0 -13 -6 -23z m411 -48 c-2 -14 -8 -25 -12 -25 -4 0 -5 11 -2 25 2 14 8 25 12
25 4 0 5 -11 2 -25z m8041 5 c-3 -11 -1 -20 5 -20 6 0 14 9 17 20 5 16 15 20
46 20 24 0 38 -4 34 -10 -3 -5 -2 -10 4 -10 5 0 13 4 16 10 9 15 230 3 330
-19 113 -24 185 -54 185 -78 0 -27 -78 -276 -132 -423 -81 -219 -165 -410
-283 -650 -308 -620 -683 -1173 -1157 -1706 -159 -178 -435 -462 -462 -475
-20 -10 -21 -10 -2 5 11 9 15 16 9 16 -7 0 -22 -15 -34 -32 -31 -44 -51 -59
-71 -54 -11 3 -18 -2 -18 -11 0 -16 -45 -56 -67 -59 -23 -4 -14 16 12 26 18 7
23 14 18 26 -5 14 -3 16 11 11 9 -4 15 -3 11 2 -3 5 1 16 10 24 13 13 13 16
-2 21 -14 6 -37 -8 -68 -40 -14 -14 -65 -35 -65 -26 1 13 27 42 39 42 12 0 15
22 5 33 -7 7 -119 -76 -150 -111 -12 -14 -28 -22 -35 -20 -10 3 -7 8 9 17 12
6 22 21 22 32 0 11 7 22 15 25 8 4 15 14 15 24 0 16 -3 17 -25 7 -14 -7 -28
-20 -31 -29 -3 -10 -9 -18 -13 -18 -4 0 -27 -17 -51 -37 -43 -37 -70 -49 -70
-32 0 5 4 9 9 9 11 0 86 109 80 115 -3 2 -34 -21 -69 -51 -36 -31 -73 -60 -83
-65 -17 -10 -17 -8 -6 13 7 13 19 28 27 34 8 6 12 16 8 22 -3 6 -2 13 4 17 5
3 10 11 10 16 0 11 -70 -45 -159 -127 -61 -56 -98 -74 -98 -49 0 8 7 15 15 15
9 0 12 3 9 6 -3 4 -2 15 4 25 16 30 -4 22 -42 -17 -35 -36 -35 -39 -17 -62 8
-9 4 -20 -17 -42 -16 -17 -34 -30 -41 -30 -7 0 -25 -16 -40 -35 -31 -41 -41
-43 -55 -11 l-12 24 -26 -24 c-14 -13 -31 -43 -36 -66 -9 -35 -25 -55 -90
-112 -44 -38 -79 -71 -78 -75 1 -3 -8 -7 -20 -7 -12 -1 -44 -22 -70 -47 -26
-25 -57 -49 -69 -53 -12 -3 -37 -23 -57 -43 -20 -19 -39 -36 -43 -37 -5 -1
-11 -2 -16 -3 -4 0 -21 -13 -39 -28 -51 -46 -78 -68 -83 -68 -15 0 -59 -44
-74 -73 -19 -36 -31 -43 -21 -11 8 24 4 21 -46 -23 -10 -10 -25 -18 -33 -18
-21 0 -79 -58 -71 -71 6 -8 2 -8 -12 -1 -16 9 -28 5 -64 -19 -24 -16 -49 -29
-55 -29 -6 0 -19 -9 -30 -21 -11 -12 -26 -18 -37 -15 -10 2 -16 2 -13 -1 3 -3
-18 -21 -47 -39 -32 -20 -54 -29 -58 -22 -4 7 -9 6 -14 -1 -16 -27 -85 -61
-110 -55 -15 4 -25 2 -25 -5 0 -6 -9 -11 -21 -11 -11 0 -17 -4 -14 -10 3 -6
-1 -7 -9 -4 -9 3 -46 -8 -82 -25 -36 -17 -77 -31 -91 -31 -13 0 -22 -4 -19 -8
2 -4 -4 -8 -14 -8 -10 0 -16 4 -14 8 8 12 -3 10 -69 -16 -63 -24 -107 -29
-107 -13 0 5 -6 4 -14 -2 -7 -6 -24 -11 -37 -11 -13 0 -46 0 -73 0 -27 0 -55
5 -62 11 -8 7 -14 6 -20 -2 -5 -8 -3 -9 6 -4 9 5 11 4 6 -3 -4 -7 -20 -12 -36
-12 -16 0 -40 -4 -54 -10 -16 -6 -27 -6 -31 0 -10 16 -48 11 -80 -10 -17 -11
-38 -17 -49 -14 -13 5 -17 2 -12 -7 4 -8 1 -7 -6 2 -12 15 -18 15 -46 3 -18
-7 -32 -10 -32 -7 0 3 -11 -2 -24 -10 -21 -14 -25 -14 -30 -2 -4 12 -10 13
-31 3 -14 -6 -25 -16 -25 -21 0 -5 6 -4 14 2 8 7 17 8 20 3 3 -5 -11 -16 -30
-25 -45 -22 -51 -21 -29 3 18 20 18 20 -13 9 -18 -6 -30 -14 -28 -18 3 -4 -3
-7 -12 -7 -9 0 -27 -4 -39 -8 -17 -5 -23 -3 -23 8 0 10 6 13 17 9 11 -4 14 -3
9 5 -11 18 -19 15 -59 -23 -29 -27 -37 -31 -37 -17 0 10 -3 13 -8 6 -4 -6 -22
-11 -40 -10 -19 1 -32 -4 -32 -11 0 -7 -5 -13 -11 -13 -6 0 -9 7 -5 15 7 18
-3 19 -26 1 -10 -7 -14 -16 -10 -21 4 -4 -3 -4 -15 -1 -15 5 -23 3 -23 -4 0
-6 -5 -8 -12 -4 -10 6 -10 4 0 -8 10 -13 10 -17 -3 -22 -10 -3 -15 1 -16 12
-1 16 -2 16 -6 0 -2 -10 -9 -18 -14 -18 -6 0 -8 4 -5 9 4 5 -7 4 -24 -2 -16
-6 -30 -15 -30 -19 0 -4 -7 -8 -16 -8 -8 0 -12 -4 -9 -10 4 -6 -8 -10 -29 -10
-19 0 -36 6 -39 13 -3 9 -9 7 -24 -5 -11 -10 -24 -18 -29 -18 -5 0 -43 -16
-84 -36 -46 -23 -76 -32 -78 -25 -6 18 -23 13 -20 -6 2 -11 -11 -24 -37 -37
-53 -27 -52 -26 -35 -37 13 -9 12 -10 -1 -6 -21 7 -99 -13 -99 -24 0 -5 -7 -9
-15 -9 -8 0 -15 -4 -15 -8 0 -5 -16 -14 -35 -22 -27 -11 -32 -16 -24 -27 9
-10 7 -13 -11 -13 -12 0 -30 -10 -39 -22 -17 -20 -66 -35 -55 -16 3 4 1 8 -5
8 -11 0 -26 -20 -26 -35 0 -5 -9 -12 -20 -15 -45 -12 -105 -51 -105 -68 0 -11
-17 -26 -46 -40 -25 -12 -43 -26 -40 -31 8 -12 -18 -21 -43 -14 -12 3 -21 1
-21 -6 0 -6 -9 -11 -19 -11 -11 0 -23 -5 -27 -12 -5 -8 -1 -9 12 -4 23 9 -27
-40 -71 -68 -27 -17 -28 -18 -15 -2 13 17 12 18 -5 14 -11 -2 -19 -9 -18 -15
2 -7 -7 -15 -19 -19 -12 -3 -29 -16 -38 -27 -9 -11 -29 -20 -47 -21 -17 0 -30
-3 -27 -5 2 -2 -1 -12 -7 -23 -7 -13 -17 -17 -29 -13 -13 4 -27 -3 -46 -24
-14 -16 -39 -33 -55 -36 -16 -4 -29 -13 -29 -21 0 -7 -13 -20 -30 -29 -16 -9
-30 -20 -30 -26 0 -5 -6 -9 -12 -8 -30 4 -40 -2 -34 -17 5 -12 2 -15 -12 -12
-10 3 -23 -1 -30 -9 -9 -9 -18 -10 -32 -3 -26 14 -30 13 -30 -8 0 -27 -29 -62
-51 -62 -10 0 -18 -3 -18 -7 3 -21 -3 -33 -16 -33 -9 0 -18 -6 -21 -14 -4 -11
-24 -14 -80 -13 -45 1 -78 -3 -82 -10 -4 -5 -18 -10 -32 -9 -17 1 -25 -4 -24
-15 1 -12 -6 -15 -25 -12 -18 3 -22 2 -13 -5 11 -7 10 -12 -3 -26 -9 -9 -13
-16 -9 -16 3 0 1 -7 -6 -15 -7 -9 -15 -13 -18 -10 -3 3 -16 -4 -28 -16 -14
-13 -24 -17 -29 -10 -9 15 -48 14 -81 -4 -23 -12 -31 -12 -44 -2 -8 8 -21 13
-27 13 -24 -2 -15 -21 16 -36 39 -19 40 -31 1 -23 -22 4 -30 2 -31 -8 0 -8 -4
-5 -9 6 -9 20 -9 20 -9 0 -1 -11 -10 -26 -22 -33 -17 -11 -25 -11 -46 3 -14
10 -23 13 -19 7 3 -6 -9 -16 -27 -23 -17 -7 -36 -15 -41 -17 -4 -2 -5 6 -1 19
4 17 3 20 -3 10 -6 -9 -22 -12 -45 -9 -38 4 -39 -8 -3 -22 20 -8 20 -9 -4 -9
-14 0 -45 8 -69 19 -24 11 -57 20 -75 20 -21 0 -27 3 -17 9 10 7 6 11 -17 16
-17 3 -36 13 -43 21 -6 8 -20 12 -29 9 -12 -4 -19 1 -23 14 -3 11 0 19 5 18 6
-1 13 4 15 11 6 14 -23 17 -32 2 -12 -20 -20 -9 -20 29 -1 31 -7 44 -32 65
-22 18 -30 32 -26 46 3 11 1 20 -3 20 -5 0 -9 16 -10 35 -1 39 16 46 52 21 18
-13 20 -12 20 5 0 13 -7 19 -22 19 -19 0 -22 5 -20 40 0 22 -3 40 -7 40 -4 0
-3 10 4 21 11 22 0 38 -26 39 -5 0 -4 4 4 9 8 5 21 7 30 3 14 -5 13 -2 -1 15
-20 21 -24 38 -8 28 6 -3 10 4 10 18 0 16 15 37 44 63 41 36 43 40 29 57 -9 9
-23 17 -31 17 -12 0 -12 3 4 15 10 8 15 15 10 15 -5 0 1 11 14 25 13 14 18 25
12 25 -19 0 -14 15 10 25 31 14 33 32 3 39 -14 4 -25 13 -25 21 0 17 21 20 36
6 14 -14 88 -26 80 -13 -3 6 2 12 11 15 14 3 9 8 -17 20 l-35 16 36 1 c28 0
38 5 47 25 15 33 17 68 2 45 -8 -13 -11 -12 -23 4 -8 11 -19 16 -24 13 -6 -4
-13 0 -17 8 -6 17 7 27 27 19 8 -3 17 2 21 11 3 9 10 14 15 11 5 -3 8 2 7 12
-1 12 6 17 22 16 23 -1 23 0 -5 22 -15 13 -34 23 -40 24 -7 0 -13 5 -13 11 0
6 8 8 18 6 50 -14 72 -16 72 -8 0 5 -8 12 -19 16 -10 3 -29 15 -42 27 -16 14
-18 19 -7 15 39 -14 88 -19 88 -9 0 6 -6 13 -12 16 -10 5 -10 7 0 12 19 9 14
20 -14 32 -14 7 -22 17 -19 23 5 7 14 3 26 -10 17 -19 69 -30 69 -16 0 3 -12
17 -27 30 l-28 24 28 1 c15 0 27 -4 27 -10 0 -5 9 -14 19 -19 16 -9 18 -8 14
9 -3 11 -10 20 -15 20 -5 0 -16 7 -24 15 -8 8 -22 11 -32 8 -16 -6 -16 -5 1
11 16 16 20 17 50 3 51 -23 81 -31 73 -18 -4 6 -12 11 -17 11 -14 0 -69 42
-69 53 0 5 19 6 46 2 l45 -6 -22 22 c-15 15 -24 18 -27 11 -6 -19 -21 -14 -17
6 2 9 4 20 4 25 1 4 7 7 15 7 20 0 40 27 24 32 -9 3 -7 18 9 56 19 46 20 54 7
65 -8 6 -21 18 -29 25 -7 6 -17 12 -22 12 -20 0 -63 26 -63 38 0 9 10 11 38 6
20 -3 41 -10 46 -15 13 -12 26 -11 26 1 0 6 -7 10 -15 10 -8 0 -15 4 -15 8 0
5 -18 17 -40 28 -41 20 -52 34 -25 34 8 0 15 -4 15 -9 0 -5 19 -9 41 -9 45 -1
44 1 -16 43 -38 26 -39 27 -10 20 17 -4 39 -7 50 -7 10 1 25 -4 32 -10 7 -6
13 -7 13 -4 0 10 -23 32 -40 39 -8 3 6 3 33 0 39 -5 47 -3 47 11 0 19 -36 22
-43 4 -2 -7 -4 -1 -3 14 1 19 6 28 18 28 37 0 48 12 48 51 0 32 -3 39 -20 39
-11 0 -20 5 -20 10 0 11 15 12 47 4 13 -4 21 -10 18 -14 -3 -4 2 -10 10 -14
19 -7 19 -26 0 -26 -18 0 -20 -16 -3 -26 7 -4 18 2 26 14 8 12 21 22 29 22 13
0 13 3 3 15 -10 12 -10 15 1 15 8 1 -2 9 -21 18 -39 20 -80 52 -80 64 0 5 12
8 28 8 21 0 24 -2 12 -10 -11 -7 -8 -10 15 -10 l30 1 -33 27 c-30 25 -42 44
-24 40 4 0 18 4 32 10 14 6 19 11 13 11 -22 1 -14 31 8 31 11 0 18 4 15 9 -4
5 0 11 6 14 9 3 4 11 -12 25 -30 25 -22 27 27 7 19 -8 44 -15 54 -15 11 0 19
-5 19 -12 0 -6 3 -9 6 -6 3 4 0 16 -6 28 -8 15 -18 20 -31 17 -14 -4 -19 0
-19 13 0 10 -6 20 -12 23 -7 2 -10 8 -6 12 4 4 14 2 23 -5 14 -11 19 -7 16 13
-2 15 19 6 29 -13 11 -21 40 -28 40 -10 0 6 -4 10 -9 10 -29 0 -79 78 -51 81
6 1 14 2 19 3 14 2 26 16 14 16 -14 0 -76 60 -69 67 3 3 12 -2 21 -11 19 -19
35 -21 35 -5 0 8 4 8 14 0 10 -9 15 -8 20 4 3 8 1 15 -4 15 -6 0 -10 7 -10 16
0 9 -5 12 -12 8 -7 -4 -8 -3 -4 5 4 6 11 9 16 6 9 -6 20 18 20 46 0 22 20 25
39 7 10 -11 11 -9 5 6 -4 10 -2 21 5 26 18 11 -6 46 -41 61 -43 18 -55 37 -32
54 29 22 50 18 23 -5 -27 -22 -14 -27 15 -5 13 10 24 11 37 5 24 -14 29 -12
23 5 -4 8 -12 15 -20 15 -29 0 -13 29 18 32 36 3 45 19 23 41 -8 9 -15 21 -15
27 0 8 -10 11 -24 8 -19 -4 -22 -1 -18 14 4 18 42 26 42 9 0 -5 11 -11 25 -13
21 -4 25 -1 25 18 0 15 6 24 15 24 8 0 15 7 15 15 0 8 9 19 20 25 11 6 20 15
20 21 0 6 7 17 15 25 8 9 15 25 15 36 0 17 3 18 15 8 12 -10 16 -9 21 5 4 9 2
26 -3 38 -5 12 -7 33 -3 47 8 31 2 50 -16 50 -8 0 -14 5 -14 10 0 12 13 13 24
3 21 -21 82 -2 72 22 -3 8 1 27 9 42 8 15 15 21 16 13 0 -8 5 -4 10 9 5 13 7
26 4 29 -3 3 -5 -1 -5 -9 0 -11 -2 -11 -10 1 -7 11 -4 20 13 33 15 13 18 20 9
24 -22 9 -1 23 36 23 l37 1 -25 15 c-23 14 -23 14 -2 9 13 -4 22 -2 22 4 0 6
5 11 10 11 6 0 10 -7 10 -15 0 -8 9 -15 20 -15 25 0 17 27 -15 55 l-23 20 24
18 c19 14 24 15 24 4 0 -22 30 -30 30 -9 0 9 7 26 15 36 22 29 19 36 -17 37
-18 1 -25 3 -15 6 9 2 17 8 17 12 0 4 13 6 28 3 24 -3 31 1 41 27 12 27 17 29
45 25 50 -9 89 -26 76 -34 -15 -9 26 -40 53 -40 10 0 29 -7 42 -16 14 -9 32
-13 45 -9 22 7 18 25 -6 25 -20 0 -194 100 -194 112 0 5 -4 6 -10 3 -23 -14
-31 8 -10 27 11 11 19 25 16 31 -3 7 -9 20 -12 30 -4 9 -13 17 -20 17 -8 0
-14 5 -14 10 0 6 7 10 15 10 8 0 15 -5 15 -11 0 -6 14 -9 33 -8 20 2 31 -1 30
-8 -2 -7 21 -24 50 -38 56 -28 89 -47 97 -55 7 -7 67 -35 108 -50 17 -7 32
-16 32 -21 0 -5 7 -9 15 -9 9 0 30 -14 47 -32 17 -18 39 -33 48 -33 9 -1 23
-7 31 -13 55 -47 76 -62 89 -62 8 0 24 -7 34 -15 11 -8 27 -15 37 -15 9 0 19
-9 22 -19 3 -14 11 -18 26 -14 12 3 21 1 21 -6 0 -10 -14 -15 -32 -12 -8 1
-13 -44 -8 -64 2 -5 3 -18 4 -27 0 -9 11 -19 23 -23 31 -7 29 -25 -2 -25 -14
0 -25 6 -25 13 0 8 -4 7 -10 -3 -8 -11 -12 -12 -18 -3 -5 9 -17 10 -37 4 -17
-5 -24 -10 -17 -10 7 -1 4 -9 -9 -22 l-22 -22 24 -12 c12 -7 28 -11 35 -8 6 2
14 -4 17 -14 2 -10 8 -26 12 -37 7 -17 4 -18 -43 -11 -45 6 -52 4 -62 -14 -9
-18 -7 -23 15 -33 19 -9 22 -14 14 -25 -9 -10 -8 -17 1 -28 7 -8 8 -15 3 -15
-6 0 -10 -17 -10 -39 0 -31 8 -47 43 -86 31 -33 41 -51 35 -59 -7 -8 -3 -20
14 -38 20 -22 21 -27 9 -32 -8 -3 -12 -11 -9 -16 4 -6 1 -17 -5 -25 -6 -8 -9
-18 -6 -23 3 -5 -1 -18 -9 -28 -18 -24 -19 -54 -2 -55 10 0 10 -2 0 -6 -22 -8
-14 -18 15 -20 15 -1 46 -3 70 -6 23 -2 42 0 42 4 0 5 -7 9 -15 9 -8 0 -15 5
-15 11 0 16 22 6 34 -17 6 -10 12 -21 13 -23 2 -2 15 9 29 24 21 23 28 25 36
14 7 -11 11 -11 15 -1 8 19 28 14 42 -11 10 -19 18 -22 49 -19 20 3 41 10 45
16 5 7 7 6 6 -4 -6 -58 17 -67 46 -18 11 20 20 27 23 19 4 -11 6 -11 12 0 7
10 14 9 34 -5 14 -9 26 -23 26 -31 0 -8 7 -15 15 -15 8 0 15 5 15 10 0 6 9 19
21 31 26 26 63 22 67 -8 4 -29 31 -30 62 -3 25 22 45 26 55 10 14 -23 117 30
108 56 -2 6 -17 8 -33 6 -33 -5 -39 10 -16 41 18 23 19 22 62 -18 41 -39 69
-46 59 -16 -9 29 15 37 35 12 10 -14 25 -21 37 -19 11 1 27 -3 36 -10 13 -11
15 -10 10 8 -3 11 -9 23 -14 26 -16 9 18 34 37 27 12 -4 15 -3 10 5 -5 8 0 12
13 12 14 0 21 -6 21 -20 0 -13 7 -20 20 -20 11 0 20 5 20 12 0 20 52 80 65 74
20 -7 59 45 57 76 -2 22 2 28 18 28 11 0 23 6 26 14 3 8 13 12 23 9 13 -3 25
7 42 34 26 42 57 72 77 73 6 0 12 9 12 20 0 11 6 20 14 20 7 0 21 10 29 23 12
17 16 18 16 6 1 -9 9 -23 18 -30 15 -12 16 -12 10 5 -6 14 -4 17 9 12 12 -4
15 -2 10 9 -3 9 0 15 8 15 17 0 49 36 51 58 4 32 17 52 36 52 13 0 17 -5 12
-17 -6 -16 -5 -16 11 -4 16 13 16 15 1 24 -12 7 -13 12 -5 22 7 8 8 20 4 26
-5 8 -3 9 5 5 7 -5 10 -14 7 -22 -10 -25 24 -15 56 16 16 17 34 30 39 30 6 0
8 4 4 9 -3 5 6 18 20 29 14 11 25 23 25 28 0 15 73 72 87 67 7 -3 13 0 13 7 0
7 18 30 40 51 22 22 40 34 40 29 0 -6 5 -10 10 -10 6 0 10 5 10 10 0 13 50 70
62 70 8 0 34 21 86 67 13 12 32 25 43 28 10 3 21 15 24 26 4 10 10 19 14 19 4
0 27 18 51 40 24 22 47 40 52 40 4 0 8 7 8 15 0 9 6 12 15 9 11 -4 13 -2 10 9
-4 8 1 17 10 21 9 3 13 2 10 -4 -3 -6 -2 -10 4 -10 18 0 62 54 68 82 3 15 9
25 14 22 5 -3 7 -10 4 -15 -3 -5 1 -6 9 -3 9 3 16 12 16 20 0 8 9 14 19 14 11
0 32 12 48 26 15 14 35 23 43 21 13 -3 16 1 12 19 -2 14 0 24 7 24 6 0 12 10
12 23 1 17 3 15 8 -8 l6 -30 46 45 c26 25 49 55 53 67 5 16 14 21 33 20 20 -2
38 10 75 48 26 27 48 56 48 63 0 6 5 13 10 13 6 1 14 2 19 3 5 0 13 5 18 10 5
5 3 6 -4 2 -7 -4 -13 -2 -13 4 0 6 8 10 18 9 23 -4 62 10 62 22 0 5 -11 2 -25
-7 -14 -9 -25 -12 -25 -6 0 14 41 43 51 36 5 -3 11 7 15 21 6 23 15 30 36 26
12 -2 48 32 48 44 0 14 39 50 63 58 9 4 17 12 17 18 0 7 -9 5 -25 -5 -27 -18
-28 -17 -19 8 4 10 18 16 38 16 24 0 27 3 16 10 -13 8 -13 10 2 10 11 0 21 13
27 38 12 42 48 73 62 51 12 -20 38 7 33 36 -2 13 0 26 6 30 6 3 7 -1 4 -9 -3
-9 -1 -16 4 -16 14 0 43 41 36 52 -3 4 0 8 6 8 6 0 20 9 32 20 13 12 16 20 9
20 -17 0 -8 25 10 26 8 0 21 2 30 2 9 1 19 11 22 22 6 23 -8 27 -17 5 -3 -8
-11 -15 -17 -15 -22 0 15 32 58 51 25 11 43 25 43 34 0 14 -5 14 -34 -4 -37
-23 -46 -25 -46 -11 0 5 16 17 35 26 19 9 35 21 35 26 0 15 41 70 48 63 3 -3
23 11 44 32 21 20 38 32 38 25 0 -7 -5 -12 -11 -12 -6 0 -9 -6 -6 -14 3 -8 -5
-19 -19 -26 -13 -8 -24 -17 -24 -22 0 -5 12 -1 28 10 15 10 33 18 40 16 7 -1
8 0 2 3 -11 5 4 23 35 40 13 8 20 22 20 40 0 24 4 28 32 31 23 2 40 13 58 36
14 18 25 37 25 42 0 5 -6 2 -13 -7 -8 -11 -18 -14 -32 -8 -17 6 -17 8 -2 8 9
1 17 7 17 15 0 8 10 13 28 12 22 -1 28 4 30 24 2 20 1 22 -7 10 -6 -8 -11 -10
-11 -5 0 10 35 45 46 45 14 0 -8 -62 -45 -129 -23 -41 -41 -78 -41 -83 0 -5
-7 -16 -15 -25 -24 -23 -8 -29 18 -7 12 11 34 26 50 34 16 8 27 21 27 34 0 18
-2 19 -11 6 -9 -12 -10 -12 -7 -1 6 22 25 24 32 5 5 -12 -16 -56 -63 -133
-147 -247 -186 -320 -150 -284 6 6 18 9 27 5 11 -4 14 -1 9 11 -4 10 -2 17 5
17 6 0 9 2 6 5 -9 9 53 70 68 67 7 -1 18 13 24 33 6 19 15 35 19 35 4 0 14 11
21 25 7 14 15 23 18 20 3 -2 -14 -34 -37 -70 -22 -36 -41 -70 -41 -75 0 -5 -5
-12 -12 -16 -7 -5 -8 -3 -3 6 5 9 4 11 -4 6 -6 -4 -9 -11 -6 -16 8 -14 -14
-52 -26 -45 -5 4 -8 3 -7 -2 3 -9 -39 -90 -68 -130 -10 -14 -12 -23 -5 -28 6
-3 18 10 28 29 9 20 20 36 25 36 4 0 28 21 53 46 25 25 51 43 58 41 7 -3 5 -6
-5 -6 -16 -1 -19 -8 -18 -36 1 -16 -32 -65 -41 -60 -5 4 -6 11 -3 17 4 6 -7 0
-25 -13 -17 -12 -31 -27 -31 -31 0 -5 10 0 22 12 12 11 26 16 30 12 9 -9 -4
-30 -125 -211 -27 -40 -46 -75 -43 -78 3 -3 8 2 12 11 3 9 12 16 20 16 8 0 13
3 13 8 -4 23 3 34 17 28 8 -3 13 -2 10 3 -3 5 1 12 10 15 11 4 13 12 8 28 -6
21 -5 21 10 9 15 -12 19 -12 32 1 13 13 13 15 0 15 -8 0 -13 -4 -10 -9 3 -4 0
-8 -5 -8 -6 0 -11 4 -11 10 0 11 41 35 54 32 5 -2 3 5 -5 14 -8 10 -9 15 -3
11 15 -9 77 60 68 75 -4 6 -3 8 2 5 15 -9 232 336 411 653 130 231 339 661
433 893 25 59 36 71 36 37 0 -11 -4 -20 -8 -20 -4 0 -8 -7 -8 -16 0 -8 -12
-45 -26 -80 -27 -67 -26 -87 1 -64 9 8 13 20 9 33 -4 11 -2 17 3 14 6 -4 9 5
6 21 -3 24 -2 25 7 7 9 -18 10 -18 6 4 -6 30 9 51 36 51 16 0 19 5 16 25 -3
14 -2 25 2 25 4 0 12 10 19 23 6 12 10 15 8 7 -3 -8 0 -23 5 -32 5 -12 3 -30
-7 -54 -19 -46 -19 -47 3 -40 15 5 15 4 -2 -8 -17 -14 -46 -60 -46 -74 0 -3
16 11 35 32 19 21 35 49 35 61 0 13 7 25 14 28 11 4 13 1 9 -11 -6 -15 -5 -15
10 -3 10 7 17 19 16 25 -3 26 2 35 16 30 21 -9 19 -29 -10 -74 -28 -45 -34
-83 -10 -74 8 4 15 10 15 15 0 6 9 20 21 32 23 24 59 94 59 114 0 8 -6 10 -17
6 -15 -6 -16 -5 -3 9 8 9 18 14 21 12 4 -2 12 3 19 11 10 12 8 19 -11 36 l-24
20 28 -17 c22 -13 30 -14 43 -4 12 10 10 1 -6 -43 -12 -31 -18 -62 -14 -68 3
-6 -3 -24 -15 -40 -13 -17 -21 -35 -18 -42 2 -6 21 24 42 68 38 78 66 115 85
115 9 0 11 -6 9 -27 0 -5 -7 -7 -15 -5 -8 2 -14 -2 -14 -8 0 -5 5 -10 10 -10
14 0 2 -65 -21 -110 -24 -48 -31 -77 -21 -83 15 -10 35 11 35 37 0 34 15 43
32 20 11 -14 14 -15 15 -5 0 8 2 12 4 10 3 -3 -6 -35 -19 -72 -18 -54 -20 -67
-9 -67 8 0 17 14 21 31 4 20 10 28 19 25 8 -3 14 0 15 7 3 46 8 61 22 72 10 7
17 18 17 24 0 14 20 35 35 38 6 1 10 -14 10 -33 0 -31 -1 -32 -13 -17 -12 16
-13 15 -7 -9 4 -14 2 -35 -4 -46 -7 -14 -8 -23 -1 -27 5 -3 10 0 10 8 0 8 9
24 20 37 11 13 20 19 20 14 0 -6 -5 -15 -12 -22 -6 -6 -8 -15 -4 -19 12 -12
57 49 52 70 -2 9 -1 17 3 17 3 0 14 12 24 28 l17 27 -6 -30 c-3 -16 -12 -48
-20 -69 -12 -30 -12 -41 -3 -50 8 -7 10 -7 6 0 -3 5 5 23 19 39 13 15 24 23
24 17 0 -6 -4 -14 -10 -17 -5 -3 -10 -13 -10 -21 0 -14 2 -14 15 0 8 8 15 24
15 36 0 11 6 23 14 26 8 3 12 12 9 20 -5 15 44 100 53 91 9 -8 -8 -57 -17 -51
-5 3 -6 -2 -3 -10 3 -8 1 -23 -5 -34 -6 -11 -8 -22 -4 -25 7 -8 24 11 43 47 8
16 25 35 37 44 13 8 23 20 23 26 0 6 9 19 20 29 24 20 24 21 5 -33 -31 -88 -8
-113 27 -30 12 30 26 49 33 46 7 -2 22 16 34 41 12 25 24 43 27 40 3 -3 1 -14
-5 -25 -6 -12 -11 -32 -11 -46 0 -35 28 -34 36 2 9 33 35 71 50 72 6 0 16 10
22 23 8 17 11 18 11 5 2 -40 40 -10 67 53 l18 40 11 -38 c6 -21 8 -40 5 -43
-4 -3 -10 -18 -14 -35 l-7 -30 17 23 c9 13 17 34 18 47 0 13 5 23 10 22 5 -1
13 9 17 23 7 24 7 24 8 -5 l1 -29 24 34 c13 19 22 38 20 41 -2 4 2 9 9 12 9 3
11 -7 9 -37 l-4 -41 20 35 c11 19 18 38 16 41 -7 12 34 41 41 30 3 -6 1 -11
-4 -11 -6 0 -11 -4 -11 -8 0 -5 7 -9 16 -9 11 0 14 7 9 24 -4 16 -1 23 9 23 9
0 12 -7 9 -20z m-83 0 c0 -5 -5 -10 -11 -10 -5 0 -7 5 -4 10 3 6 8 10 11 10 2
0 4 -4 4 -10z m-7900 -44 c0 -3 -4 -8 -10 -11 -5 -3 -10 -1 -10 4 0 6 5 11 10
11 6 0 10 -2 10 -4z m-35 -86 c-5 -8 -11 -8 -17 -2 -6 6 -7 16 -3 22 5 8 11 8
17 2 6 -6 7 -16 3 -22z m7745 6 c0 -2 -7 -7 -16 -10 -8 -3 -12 -2 -9 4 6 10
25 14 25 6z m-875 -78 c-4 -13 -13 -29 -20 -36 -10 -11 -12 -8 -11 15 1 27 11
43 29 43 5 0 5 -10 2 -22z m230 -103 c-14 -30 -30 -55 -36 -55 -6 0 -7 -4 -4
-10 9 -15 -2 -12 -19 6 -9 8 -16 21 -16 27 0 8 3 7 9 -2 6 -10 11 -5 16 18 5
23 11 31 21 27 10 -4 20 7 31 30 10 20 19 31 21 25 2 -6 -8 -36 -23 -66z
m-7049 41 c3 -8 4 -23 2 -33 -3 -13 -7 -9 -15 15 -12 31 1 48 13 18z m-3589
-506 c79 -111 135 -200 126 -200 -4 0 1 -6 10 -12 24 -19 130 -229 172 -342
81 -219 109 -449 109 -906 1 -330 -10 -459 -55 -700 -44 -228 -144 -567 -160
-539 -4 8 -47 130 -94 270 -261 770 -409 1441 -470 2124 -19 206 -31 644 -21
738 l8 67 157 -207 c86 -115 184 -246 218 -293z m-2630 454 c-3 -3 -12 -4 -19
-1 -8 3 -5 6 6 6 11 1 17 -2 13 -5z m13375 -46 c-7 -7 -12 -8 -12 -2 0 14 12
26 19 19 2 -3 -1 -11 -7 -17z m-15550 -34 c-3 -19 -7 -22 -13 -12 -13 20 -11
38 5 38 9 0 12 -8 8 -26z m14960 -46 c-7 -7 -12 -8 -12 -2 0 14 12 26 19 19 2
-3 -1 -11 -7 -17z m-7602 -28 c-6 -11 -13 -20 -16 -20 -2 0 0 9 6 20 6 11 13
20 16 20 2 0 0 -9 -6 -20z m6135 -80 c3 -5 1 -10 -4 -10 -6 0 -11 5 -11 10 0
6 2 10 4 10 3 0 8 -4 11 -10z m5 -35 c-7 -9 -15 -13 -19 -10 -3 3 1 10 9 15
21 14 24 12 10 -5z m-8245 -163 c-13 -13 -15 10 -8 74 l8 69 3 -69 c2 -37 0
-71 -3 -74z m22 76 c-2 -13 -4 -3 -4 22 0 25 2 35 4 23 2 -13 2 -33 0 -45z
m3051 -31 c-11 -22 -13 -21 -22 18 -5 22 -4 26 4 15 8 -13 10 -12 11 5 l0 20
8 -20 c5 -11 4 -28 -1 -38z m-2970 -32 c-3 -3 -9 2 -12 12 -6 14 -5 15 5 6 7
-7 10 -15 7 -18z m-21 -10 c0 -8 -2 -13 -5 -10 -2 2 -13 -6 -23 -18 -11 -13
-18 -17 -19 -9 0 7 -4 10 -10 7 -5 -3 -10 1 -10 9 0 10 9 16 24 16 14 0 28 5
31 10 9 14 12 13 12 -5z m-61 -127 c-4 -13 -9 -41 -12 -63 -3 -22 -8 -47 -11
-55 -4 -8 -5 -22 -4 -30 2 -12 -1 -12 -15 2 -19 19 -24 80 -6 86 7 2 12 17 12
33 0 18 4 28 10 24 6 -3 10 1 10 9 0 9 5 16 11 16 7 0 9 -9 5 -22z m98 -37
c-2 -3 -12 3 -22 13 -16 17 -16 18 5 5 12 -7 20 -15 17 -18z m7691 -1 c-3 -5
-10 -10 -16 -10 -5 0 -9 5 -9 10 0 6 7 10 16 10 8 0 12 -4 9 -10z m-7759 -36
c-9 -8 -16 -11 -16 -4 0 15 24 40 28 29 2 -5 -4 -16 -12 -25z m8984 -63 c-6
-16 -18 -32 -26 -35 -19 -7 -18 9 2 28 8 9 13 16 9 16 -3 0 0 6 7 14 19 20 22
11 8 -23z m-36 -63 c-3 -5 -9 -7 -12 -4 -3 3 -11 1 -19 -5 -16 -14 -18 2 -2
18 13 13 42 6 33 -9z m-22 -50 c-7 -7 -12 -8 -12 -2 0 14 12 26 19 19 2 -3 -1
-11 -7 -17z m-8808 -59 c-1 -17 -9 -39 -18 -47 -15 -15 -16 -14 -16 15 0 17 6
38 13 45 8 7 12 20 10 28 -3 11 -2 12 4 3 5 -7 8 -27 7 -44z m-73 8 c-10 -9
-11 -8 -5 6 3 10 9 15 12 12 3 -3 0 -11 -7 -18z m8903 -62 c-4 -8 -11 -15 -16
-15 -6 0 -5 6 2 15 7 8 14 15 16 15 2 0 1 -7 -2 -15z m-154 -32 c0 -5 -4 -15
-10 -23 -11 -18 -25 -7 -17 15 6 15 27 21 27 8z m126 -15 c-7 -34 -7 -35 -15
-13 -5 12 -4 23 3 27 16 11 16 10 12 -14z m-243 -65 c-17 -14 -17 -14 0 -9 11
3 16 2 12 -4 -8 -12 -16 -12 -34 -1 -12 8 -12 11 0 24 8 8 20 12 27 10 9 -4 8
-9 -5 -20z m-1595 5 c-2 -6 -10 -14 -16 -16 -7 -2 -10 2 -6 12 7 18 28 22 22
4z m-2334 -83 c-4 -8 -8 -15 -10 -15 -2 0 -4 7 -4 15 0 8 4 15 10 15 5 0 7 -7
4 -15z m-3394 -94 c0 -5 -9 -19 -20 -32 l-21 -24 16 33 c15 31 25 41 25 23z
m7060 -66 c-7 -8 -17 -15 -22 -15 -11 0 14 29 26 30 5 0 3 -7 -4 -15z m397 -1
c-3 -3 -12 -4 -19 -1 -8 3 -5 6 6 6 11 1 17 -2 13 -5z m-12572 -173 c3 -6 -2
-14 -11 -19 -11 -6 -13 -11 -5 -16 6 -4 11 -2 11 3 0 6 5 11 10 11 6 0 10 -7
10 -17 0 -9 -3 -14 -6 -10 -3 3 -16 2 -28 -3 -38 -14 -51 3 -24 33 25 29 34
32 43 18z m40 -92 c-4 -5 -12 -9 -18 -8 -9 0 -8 2 1 6 6 2 9 10 6 15 -4 7 -2
8 5 4 6 -4 9 -12 6 -17z m11827 -121 c-7 -7 -12 -8 -12 -2 0 14 12 26 19 19 2
-3 -1 -11 -7 -17z m-3615 -30 c-3 -8 -6 -5 -6 6 -1 11 2 17 5 13 3 -3 4 -12 1
-19z m-37 -114 c0 -8 -4 -12 -10 -9 -5 3 -10 13 -10 21 0 8 5 12 10 9 6 -3 10
-13 10 -21z m14 -98 c-3 -9 -10 -16 -15 -16 -14 0 -11 28 4 33 16 6 19 3 11
-17z m-64 -299 c0 -20 76 -78 93 -71 8 3 18 1 22 -5 3 -6 15 -11 25 -11 10 0
36 -16 57 -35 21 -19 43 -33 50 -30 7 2 19 -2 27 -10 8 -8 28 -15 45 -15 24 0
31 -4 31 -19 0 -25 25 -45 50 -38 11 3 27 -1 34 -9 8 -8 24 -14 35 -14 12 0
21 -6 21 -14 0 -8 8 -17 17 -20 14 -6 15 -9 4 -16 -16 -9 -61 8 -61 23 0 5
-11 7 -25 5 -14 -3 -28 -1 -31 3 -3 5 -20 9 -37 9 -25 0 -29 3 -17 11 11 8 12
12 3 16 -7 2 -13 13 -13 24 0 17 -8 19 -80 19 -47 0 -80 4 -80 10 0 6 -18 10
-40 10 l-40 0 0 44 c0 31 -5 46 -16 50 -25 9 -64 7 -64 -4 0 -5 -4 -10 -10
-10 -5 0 -10 7 -10 15 0 8 -9 15 -20 15 -11 0 -20 -4 -20 -10 0 -5 -3 -10 -7
-10 -5 0 -8 16 -9 35 0 19 3 35 7 35 5 0 6 7 3 15 -5 11 1 15 25 15 19 0 31
-5 31 -13z m810 -21 c0 -3 -4 -8 -10 -11 -5 -3 -10 -1 -10 4 0 6 5 11 10 11 6
0 10 -2 10 -4z m-40 -90 c0 -8 -7 -17 -16 -20 -23 -9 -24 -8 -24 14 0 13 7 20
20 20 11 0 20 -6 20 -14z m-200 -336 c0 -5 -5 -10 -11 -10 -5 0 -7 5 -4 10 3
6 8 10 11 10 2 0 4 -4 4 -10z m25 -120 c3 -5 -1 -10 -9 -10 -9 0 -16 5 -16 10
0 6 4 10 9 10 6 0 13 -4 16 -10z m1710 -59 c-3 -6 -11 -11 -17 -11 -6 0 -6 6
2 15 14 17 26 13 15 -4z m-8889 -28 c-10 -10 -19 5 -10 18 6 11 8 11 12 0 2
-7 1 -15 -2 -18z m8836 -4 c-3 -21 -7 -27 -13 -18 -4 7 -3 21 2 31 14 25 16
23 11 -13z m-122 -134 c-7 -8 -16 -12 -21 -9 -13 8 -1 24 18 24 13 0 13 -3 3
-15z m-1675 -15 c3 -5 1 -10 -4 -10 -6 0 -11 5 -11 10 0 6 2 10 4 10 3 0 8 -4
11 -10z m35 -6 c0 -8 -5 -12 -10 -9 -6 4 -8 11 -5 16 9 14 15 11 15 -7z m1620
-10 c0 -2 -7 -4 -15 -4 -8 0 -15 4 -15 10 0 5 7 7 15 4 8 -4 15 -8 15 -10z
m-1510 -80 c0 -2 -7 -4 -15 -4 -8 0 -15 4 -15 10 0 5 7 7 15 4 8 -4 15 -8 15
-10z m50 6 c0 -5 -7 -10 -16 -10 -8 0 -12 5 -9 10 3 6 10 10 16 10 5 0 9 -4 9
-10z m4332 -62 c-7 -7 -12 -8 -12 -2 0 14 12 26 19 19 2 -3 -1 -11 -7 -17z
m-5612 -29 c0 -5 -9 -9 -20 -9 -11 0 -20 6 -20 14 0 9 7 12 20 9 11 -3 20 -9
20 -14z m-5360 -19 c0 -17 -7 -20 -49 -20 -51 0 -75 15 -50 31 8 5 33 9 57 9
35 0 42 -3 42 -20z m11050 16 c0 -2 -8 -10 -17 -17 -16 -13 -17 -12 -4 4 13
16 21 21 21 13z m-4364 -53 c-10 -10 -19 5 -10 18 6 11 8 11 12 0 2 -7 1 -15
-2 -18z m-6944 -5 c-9 -9 -15 -9 -24 0 -9 9 -7 12 12 12 19 0 21 -3 12 -12z
m-22 -18 c0 -5 -7 -10 -16 -10 -8 0 -12 5 -9 10 3 6 10 10 16 10 5 0 9 -4 9
-10z m280 0 c0 -5 -22 -10 -49 -10 -28 0 -53 5 -56 10 -4 6 15 10 49 10 31 0
56 -4 56 -10z m50 -5 c0 -8 -6 -15 -14 -15 -8 0 -16 7 -20 15 -4 10 1 15 14
15 11 0 20 -7 20 -15z m5220 -30 c-7 -9 -15 -13 -18 -10 -3 2 1 11 8 20 7 9
15 13 18 10 3 -2 -1 -11 -8 -20z m-5436 0 c-4 -8 -12 -15 -20 -15 -8 0 -14 7
-14 15 0 8 9 15 20 15 13 0 18 -5 14 -15z m416 -13 c0 -4 -17 -6 -37 -4 -59 5
-63 10 -10 11 26 1 47 -3 47 -7z m10020 -120 c0 -6 -32 -31 -41 -32 -3 0 -4
11 -2 24 4 17 10 22 24 19 10 -3 19 -8 19 -11z m-3581 -3 c37 -13 38 -19 10
-43 -20 -17 -23 -17 -31 -2 -5 9 -13 14 -19 11 -10 -7 -12 6 -3 29 7 19 4 19
43 5z m-1482 -26 c3 -7 -4 -9 -16 -6 -12 3 -18 9 -15 15 7 11 26 6 31 -9z
m1573 7 c0 -5 -5 -10 -11 -10 -5 0 -7 5 -4 10 3 6 8 10 11 10 2 0 4 -4 4 -10z
m40 1 c0 -5 -7 -11 -15 -15 -15 -5 -20 5 -8 17 9 10 23 9 23 -2z m-5491 -117
c22 -60 53 -145 70 -189 38 -97 38 -105 4 -105 -33 0 -26 -9 10 -12 22 -2 29
-12 9 -13 -77 -6 -140 -35 -76 -35 38 0 20 -16 -26 -24 -42 -6 -53 -21 -22
-29 12 -3 9 -5 -8 -6 -31 -2 -84 -30 -57 -31 34 0 16 -18 -25 -24 l-43 -7 30
-15 c20 -9 22 -12 7 -8 -29 7 -89 -21 -97 -45 -3 -11 -21 -26 -39 -35 -19 -9
-36 -22 -39 -30 -8 -20 -63 -46 -75 -34 -5 5 -14 2 -23 -8 -9 -12 -10 -15 -1
-10 18 11 15 -4 -5 -27 -10 -11 -12 -17 -5 -13 6 4 12 2 12 -3 0 -6 -11 -10
-25 -9 -14 1 -25 6 -25 10 0 3 27 58 61 120 72 133 273 534 315 629 16 37 30
66 32 65 1 -2 20 -52 41 -112z m5921 106 c0 -5 -4 -10 -9 -10 -6 0 -13 5 -16
10 -3 6 1 10 9 10 9 0 16 -4 16 -10z m-660 -24 c0 -2 -9 -6 -20 -9 -11 -3 -18
-1 -14 4 5 9 34 13 34 5z m-7397 -54 c-4 -9 -2 -13 4 -9 5 3 19 -2 29 -13 10
-11 33 -33 49 -50 17 -16 25 -30 19 -30 -13 0 -74 59 -74 72 0 4 -6 5 -14 2
-14 -6 -30 22 -20 37 3 5 1 9 -4 9 -6 0 -13 8 -16 17 -6 15 -5 15 13 -1 11
-10 17 -24 14 -34z m8107 44 c0 -11 -19 -15 -25 -6 -3 5 1 10 9 10 9 0 16 -2
16 -4z m-2100 -36 c0 -5 -7 -10 -15 -10 -8 0 -15 5 -15 10 0 6 7 10 15 10 8 0
15 -4 15 -10z m-80 -137 c0 -7 -4 -13 -10 -13 -5 0 -10 7 -10 15 0 8 -7 15
-16 15 -8 0 -12 4 -9 10 8 12 45 -10 45 -27z m-4816 -48 c4 -11 -1 -15 -19
-15 -26 0 -34 15 -12 23 20 9 25 8 31 -8z m1243 -47 c1 -27 -1 -29 -7 -13 -11
27 -12 45 -2 45 5 0 9 -15 9 -32z m-1147 -143 c0 -8 -7 -15 -16 -15 -8 0 -13
4 -10 9 4 5 0 12 -6 14 -7 3 -3 6 10 6 13 1 22 -5 22 -14z m-41 -29 c-2 -2
-17 -6 -34 -10 -22 -5 -26 -4 -15 4 14 9 59 15 49 6z m84 -117 c-4 -4 -6 13
-3 39 l5 47 3 -39 c2 -21 0 -42 -5 -47z m2366 -99 c27 -58 115 -242 196 -410
347 -718 437 -905 513 -1076 175 -391 292 -696 387 -1006 31 -100 65 -199 76
-219 17 -35 17 -39 3 -69 -22 -43 -12 -94 27 -142 l31 -39 -36 -32 c-44 -38
-56 -89 -33 -136 18 -37 18 -37 -92 -81 -205 -81 -298 -192 -356 -421 -15 -57
-31 -108 -36 -114 -5 -5 -40 -10 -77 -11 -94 -1 -156 -33 -160 -85 -3 -33 3
-42 105 -140 117 -112 307 -261 387 -303 57 -30 108 -33 166 -10 52 21 84 16
204 -35 53 -23 110 -44 126 -48 l30 -5 0 -107 c0 -136 -15 -419 -40 -736 -11
-137 -29 -367 -40 -510 -11 -143 -27 -350 -35 -460 -79 -1023 -282 -1929 -599
-2673 -204 -478 -413 -847 -993 -1744 -133 -208 -296 -462 -360 -565 -530
-852 -864 -1625 -1087 -2513 -115 -456 -206 -1016 -232 -1418 -4 -56 -10 -102
-13 -101 -3 0 -49 68 -102 152 l-96 152 17 120 c54 362 87 781 100 1233 l8
317 45 197 c79 342 170 683 367 1373 378 1324 494 1817 575 2441 11 88 29 160
65 270 554 1645 834 2908 901 4068 15 259 6 901 -15 1136 -82 890 -285 1675
-755 2923 -56 148 -99 272 -96 277 3 4 51 41 108 81 155 110 476 354 622 472
72 58 134 105 138 104 4 -1 30 -49 56 -107z m-2374 11 c-7 -23 -25 -29 -25 -8
0 14 21 39 28 33 2 -3 1 -14 -3 -25z m55 -16 c0 -15 -43 -12 -48 3 -3 10 4 13
22 10 15 -2 26 -7 26 -13z m670 5 c0 -5 -5 -10 -11 -10 -5 0 -8 -4 -4 -9 3 -6
-1 -13 -9 -18 -19 -11 -21 -24 -4 -34 8 -5 -6 -8 -37 -7 -33 1 -40 2 -20 5 30
5 60 23 37 23 -7 0 -12 7 -12 15 0 8 7 15 15 15 9 0 18 7 21 15 7 17 24 20 24
5z m-181 -89 c-6 -2 -18 4 -27 13 -15 15 -15 15 10 4 15 -7 23 -15 17 -17z
m218 23 c-3 -3 -12 -4 -19 -1 -8 3 -5 6 6 6 11 1 17 -2 13 -5z m-237 -44 c0
-5 9 -10 20 -10 11 0 20 5 20 10 0 6 17 10 37 10 51 0 30 -19 -30 -26 -35 -5
-50 -2 -62 10 -15 14 -15 16 -1 16 9 0 16 -4 16 -10z m-471 -14 c10 -12 8 -13
-8 -9 -12 3 -21 9 -21 14 0 14 16 11 29 -5z m390 -38 c1 14 81 17 81 3 0 -5
-15 -12 -32 -16 -32 -7 -32 -8 -9 -14 23 -6 23 -7 -12 -18 -32 -10 -38 -8 -54
10 -14 17 -15 19 -1 9 9 -8 19 -9 22 -4 3 6 -1 12 -9 16 -9 3 -12 12 -8 22 6
16 7 16 14 -2 4 -10 8 -13 8 -6z m111 12 c0 -5 -5 -10 -11 -10 -5 0 -7 5 -4
10 3 6 8 10 11 10 2 0 4 -4 4 -10z m3892 -118 c25 -18 23 -32 -6 -32 -24 0
-36 22 -36 65 l1 20 11 -20 c6 -11 20 -26 30 -33z m-4222 7 c3 -1 9 -1 13 0 5
1 6 -3 2 -9 -3 -6 -11 -7 -17 -4 -7 5 -9 1 -5 -9 5 -14 2 -15 -21 -6 -14 6
-37 8 -49 4 -13 -3 -23 -1 -23 5 0 5 -9 10 -20 10 -11 0 -20 4 -20 8 0 6 119
7 140 1z m-55 -49 c4 -6 16 -8 28 -4 21 6 21 6 3 -8 -17 -13 -21 -13 -38 1
-20 18 -22 21 -9 21 6 0 13 -5 16 -10z m7385 -70 c0 -5 -5 -10 -11 -10 -5 0
-7 5 -4 10 3 6 8 10 11 10 2 0 4 -4 4 -10z m-325 -80 c3 -5 1 -10 -4 -10 -6 0
-11 5 -11 10 0 6 2 10 4 10 3 0 8 -4 11 -10z m-475 -144 c0 -3 -4 -8 -10 -11
-5 -3 -10 -1 -10 4 0 6 5 11 10 11 6 0 10 -2 10 -4z m-5360 -98 c640 -1657
862 -2686 836 -3878 -23 -1121 -241 -2247 -742 -3835 l-79 -250 -6 370 c-8
466 -32 694 -120 1125 -87 426 -199 825 -454 1614 -327 1016 -447 1480 -519
2016 -26 187 -53 506 -45 514 3 3 22 1 44 -4 77 -18 149 -12 186 15 119 86 99
79 260 86 190 7 203 14 197 101 -4 52 -9 65 -33 85 -29 25 -43 26 -131 8 -46
-10 -54 19 -59 221 -5 188 -8 222 -32 299 -25 81 -50 121 -117 193 -81 86 -91
105 -76 142 6 15 10 47 8 71 -3 38 -6 44 -28 48 -48 6 -55 51 -11 68 39 14 63
54 69 115 4 39 15 65 47 112 24 34 81 123 129 199 107 173 156 236 265 344 92
92 348 303 368 303 6 0 26 -37 43 -82z m2940 72 c0 -5 -12 -10 -27 -9 -25 0
-26 1 -8 9 27 12 35 12 35 0z m-49 -130 c6 0 7 -5 4 -10 -5 -8 -11 -8 -19 -1
-7 6 -16 8 -19 4 -4 -3 -7 -1 -7 6 0 8 6 11 16 7 9 -3 20 -6 25 -6z m-40 -127
c26 -14 30 -18 16 -21 -10 -2 -26 3 -36 12 -10 9 -20 13 -23 10 -3 -3 -9 -1
-13 5 -9 16 18 13 56 -6z m-204 -375 c-3 -8 -6 -5 -6 6 -1 11 2 17 5 13 3 -3
4 -12 1 -19z m-3965 -384 c-2 -16 4 -34 18 -49 21 -22 21 -24 4 -74 -24 -73
-11 -114 36 -121 l34 -5 -87 -95 c-48 -52 -100 -120 -117 -151 -61 -115 -75
-245 -43 -411 20 -103 15 -118 -42 -132 -55 -13 -135 -92 -135 -134 0 -22 7
-36 24 -47 32 -21 189 -77 296 -106 47 -12 89 -26 94 -30 5 -4 12 -70 17 -146
38 -608 170 -1210 475 -2163 53 -168 137 -431 186 -585 269 -845 397 -1391
453 -1935 33 -315 30 -782 -6 -1140 -11 -114 -29 -168 -314 -990 -288 -830
-452 -1323 -581 -1750 -78 -256 -73 -244 -78 -239 -3 2 -12 83 -21 179 -24
265 -72 676 -111 960 -70 516 -100 698 -410 2533 -221 1310 -318 2081 -376
2992 -20 311 -17 1260 5 1555 60 801 175 1442 378 2097 27 89 56 177 64 195
l13 34 114 -108 c95 -91 112 -112 110 -134z m5198 142 c0 -2 -7 -9 -15 -16
-13 -11 -14 -10 -9 4 5 14 24 23 24 12z m-4968 -257 c-37 -33 -85 -38 -114
-12 -29 26 -21 36 25 30 24 -4 57 -1 77 7 48 17 51 10 12 -25z m4348 -89 c11
-7 6 -9 -17 -7 -18 1 -33 5 -33 10 0 10 32 9 50 -3z m-358 -17 c8 -10 2 -13
-26 -13 -21 0 -35 4 -31 9 3 5 -7 11 -22 14 -16 2 -6 4 20 3 27 0 53 -6 59
-13z m-18 -118 c-7 -17 -16 -19 -29 -6 -6 5 -19 11 -30 14 -11 3 -1 5 22 6 34
1 41 -2 37 -14z m-34 -19 c0 -11 -19 -15 -25 -6 -3 5 1 10 9 10 9 0 16 -2 16
-4z m-4018 -42 c4 -3 0 -24 -7 -47 -8 -23 -19 -68 -25 -100 -21 -108 -80 -126
-80 -25 0 63 34 144 69 163 30 16 35 17 43 9z m-252 -188 c-6 -19 -18 -40 -27
-48 -15 -12 -16 -9 -10 26 8 48 39 100 45 73 2 -9 -2 -33 -8 -51z m669 22 c5
-13 6 -27 3 -32 -6 -11 -32 22 -32 41 0 21 20 15 29 -9z m-632 -567 c110 -55
391 -121 458 -109 33 7 32 -5 -2 -28 -22 -14 -46 -18 -108 -17 -68 1 -111 11
-290 66 -142 43 -210 69 -210 78 0 8 -4 19 -7 25 -22 35 77 25 159 -15z m738
-82 c5 -5 -9 -9 -37 -9 -54 0 -80 8 -72 22 7 11 94 1 109 -13z m2937 -174 c16
-14 38 -25 49 -25 10 0 19 -4 19 -10 0 -5 -14 -10 -32 -10 -33 0 -78 33 -78
57 0 19 8 16 42 -12z m-142 -287 c0 -17 -97 -108 -115 -108 -20 0 -19 30 1 59
31 44 114 80 114 49z m-286 -59 c-39 -40 -54 -48 -54 -28 0 20 83 95 88 81 2
-8 -13 -31 -34 -53z m-205 -504 c143 -140 205 -199 239 -225 17 -14 32 -31 32
-38 0 -27 -117 59 -252 187 -31 29 -66 59 -77 67 -18 13 -61 74 -61 88 0 24
45 -6 119 -79z m781 -200 c0 -61 -4 -95 -11 -95 -27 0 -49 22 -49 49 0 34 39
141 51 141 5 0 9 -43 9 -95z m-171 -139 c36 -19 59 -46 40 -46 -20 0 -79 38
-79 50 0 13 6 13 39 -4z m-2519 -5642 c-86 -422 -184 -797 -451 -1731 -156
-548 -314 -1129 -332 -1218 -2 -11 -7 52 -11 140 -4 88 -11 219 -16 290 l-8
130 84 285 c47 157 130 426 185 598 157 492 581 1731 587 1714 1 -5 -16 -98
-38 -208z m-881 -3177 c1 -198 -1 -217 -33 -390 -74 -393 -136 -914 -136
-1152 0 -89 -3 -86 -114 115 l-86 155 25 170 c60 426 150 882 261 1330 72 290
68 282 75 120 4 -77 7 -234 8 -348z m-39 -1176 c-7 -82 -16 -165 -21 -183 -7
-26 -8 -22 -4 22 14 180 29 320 33 316 2 -3 -1 -72 -8 -155z m-23 -243 c-3 -8
-6 -5 -6 6 -1 11 2 17 5 13 3 -3 4 -12 1 -19z"/>
<path d="M23230 28560 c0 -5 9 -10 21 -10 11 0 17 5 14 10 -3 6 -13 10 -21 10
-8 0 -14 -4 -14 -10z"/>
<path d="M23292 28538 c-19 -19 -14 -35 15 -57 14 -12 23 -24 20 -28 -13 -12
16 -33 47 -33 24 0 27 3 16 10 -13 8 -13 10 2 10 12 0 15 5 11 16 -4 10 -14
14 -30 11 -20 -4 -27 2 -45 39 -23 50 -20 48 -36 32z"/>
<path d="M23430 28440 c-9 -6 -10 -10 -3 -10 6 0 15 5 18 10 8 12 4 12 -15 0z"/>
<path d="M23510 28305 c7 -8 16 -12 21 -9 13 8 1 24 -18 24 -13 0 -13 -3 -3
-15z"/>
<path d="M24152 27359 c2 -7 10 -15 17 -17 8 -3 12 1 9 9 -2 7 -10 15 -17 17
-8 3 -12 -1 -9 -9z"/>
<path d="M24180 27301 c0 -5 5 -13 10 -16 6 -3 10 -2 10 4 0 5 -4 13 -10 16
-5 3 -10 2 -10 -4z"/>
<path d="M24436 26535 c4 -8 11 -15 16 -15 6 0 5 6 -2 15 -7 8 -14 15 -16 15
-2 0 -1 -7 2 -15z"/>
<path d="M24597 25619 c-3 -12 -2 -31 3 -42 7 -18 9 -14 9 21 1 46 -4 54 -12
21z"/>
<path d="M26125 25560 c3 -5 8 -10 11 -10 2 0 4 5 4 10 0 6 -5 10 -11 10 -5 0
-7 -4 -4 -10z"/>
<path d="M26161 25544 c0 -11 3 -14 6 -6 3 7 2 16 -1 19 -3 4 -6 -2 -5 -13z"/>
<path d="M26200 25478 c0 -37 2 -40 14 -28 9 9 12 26 9 43 -8 42 -23 32 -23
-15z"/>
<path d="M24540 25393 c0 -18 27 -46 38 -39 14 9 16 36 3 36 -5 0 -16 3 -25 6
-9 3 -16 2 -16 -3z"/>
<path d="M26315 25335 c2 -20 6 -39 9 -42 3 -3 4 11 3 30 -2 20 -6 39 -9 43
-3 3 -5 -11 -3 -31z"/>
<path d="M16884 23984 c3 -16 8 -50 12 -77 6 -48 16 -63 34 -52 6 3 6 15 0 29
-6 16 -5 28 3 36 10 10 7 12 -11 7 -19 -4 -21 -2 -18 19 3 13 0 26 -5 30 -5 3
-7 9 -4 14 3 5 0 12 -6 16 -8 4 -9 -2 -5 -22z"/>
<path d="M16924 23970 c0 -17 3 -30 7 -30 8 0 6 47 -3 55 -2 3 -4 -9 -4 -25z"/>
<path d="M16910 23826 c0 -8 5 -18 10 -21 6 -3 10 3 10 14 0 12 -4 21 -10 21
-5 0 -10 -6 -10 -14z"/>
<path d="M16979 23658 c0 -22 -1 -22 -9 -3 -7 16 -9 17 -9 3 -1 -9 4 -20 9
-23 6 -4 8 -10 5 -15 -3 -5 -2 -11 2 -13 5 -3 9 12 10 34 2 21 0 39 -2 39 -3
0 -5 -10 -6 -22z"/>
<path d="M21170 20534 c0 -17 22 -14 28 4 2 7 -3 12 -12 12 -9 0 -16 -7 -16
-16z"/>
<path d="M17351 20454 c0 -11 3 -14 6 -6 3 7 2 16 -1 19 -3 4 -6 -2 -5 -13z"/>
<path d="M17290 20445 c0 -8 4 -15 10 -15 5 0 7 7 4 15 -4 8 -8 15 -10 15 -2
0 -4 -7 -4 -15z"/>
<path d="M21056 20431 c-4 -7 -5 -15 -2 -18 9 -9 19 4 14 18 -4 11 -6 11 -12
0z"/>
<path d="M17520 20284 c0 -8 5 -12 10 -9 6 4 8 11 5 16 -9 14 -15 11 -15 -7z"/>
<path d="M17815 19970 c3 -5 8 -10 11 -10 2 0 4 5 4 10 0 6 -5 10 -11 10 -5 0
-7 -4 -4 -10z"/>
<path d="M21511 19954 c0 -11 3 -14 6 -6 3 7 2 16 -1 19 -3 4 -6 -2 -5 -13z"/>
<path d="M19454 18473 c2 -9 8 -19 15 -21 10 -3 10 0 2 17 -14 25 -20 27 -17
4z"/>
<path d="M21180 17120 c-22 -7 -21 -8 13 -9 20 -1 37 4 37 9 0 11 -14 11 -50
0z"/>
<path d="M21177 17066 c-7 -19 1 -26 30 -26 28 0 30 16 4 30 -25 13 -28 13
-34 -4z"/>
<path d="M21260 16875 c0 -9 9 -15 21 -15 18 0 19 2 9 15 -7 8 -16 15 -21 15
-5 0 -9 -7 -9 -15z"/>
<path d="M21475 16770 c-3 -5 -2 -10 4 -10 5 0 13 5 16 10 3 6 2 10 -4 10 -5
0 -13 -4 -16 -10z"/>
<path d="M21474 16732 c3 -6 -4 -18 -16 -28 -20 -14 -20 -16 -3 -10 11 4 32
10 48 13 28 6 38 23 13 23 -8 0 -22 3 -32 7 -11 4 -15 3 -10 -5z"/>
<path d="M22258 15933 c7 -3 16 -2 19 1 4 3 -2 6 -13 5 -11 0 -14 -3 -6 -6z"/>
<path d="M22170 15901 c8 -5 29 -11 45 -15 l30 -6 -25 15 c-14 8 -34 14 -45
14 -16 0 -17 -1 -5 -8z"/>
<path d="M32735 25040 c3 -5 8 -10 11 -10 2 0 4 5 4 10 0 6 -5 10 -11 10 -5 0
-7 -4 -4 -10z"/>
<path d="M32780 24772 c0 -5 7 -15 15 -22 8 -7 15 -8 15 -2 0 5 -7 15 -15 22
-8 7 -15 8 -15 2z"/>
<path d="M34150 24433 c0 -5 5 -15 10 -23 8 -12 10 -11 10 8 0 12 -4 22 -10
22 -5 0 -10 -3 -10 -7z"/>
<path d="M32581 21768 c0 -28 2 -30 9 -13 12 28 12 45 0 45 -5 0 -10 -15 -9
-32z"/>
<path d="M32483 21693 c-7 -2 -9 -11 -6 -19 3 -8 0 -14 -6 -14 -6 0 -11 -5
-11 -12 0 -7 9 -3 21 9 22 22 23 43 2 36z"/>
<path d="M32215 21180 c-10 -11 -14 -20 -9 -20 5 0 15 9 22 20 7 11 11 20 9
20 -2 0 -12 -9 -22 -20z"/>
<path d="M33572 20925 c4 -4 1 -17 -7 -29 -17 -24 -19 -36 -5 -36 6 0 10 8 10
18 0 10 5 23 11 29 8 8 7 13 -3 18 -7 5 -10 5 -6 0z"/>
<path d="M33317 20905 c-4 -8 -2 -17 3 -20 6 -4 10 3 10 14 0 25 -6 27 -13 6z"/>
<path d="M33215 20887 c-10 -15 -16 -30 -13 -32 8 -9 40 33 36 47 -3 8 -11 2
-23 -15z"/>
<path d="M33763 20885 c-3 -9 -3 -19 1 -22 3 -4 6 1 6 10 0 8 6 18 13 20 9 4
9 6 -1 6 -7 1 -15 -6 -19 -14z"/>
<path d="M33641 20878 c0 -9 -8 -24 -17 -33 -9 -9 -14 -19 -11 -22 12 -11 38
27 34 49 -3 14 -5 16 -6 6z"/>
<path d="M34075 20839 c-4 -6 -5 -12 -2 -15 2 -3 7 2 10 11 7 17 1 20 -8 4z"/>
<path d="M33760 20821 c0 -3 4 -12 9 -19 6 -11 9 -9 13 5 3 12 0 20 -8 20 -8
0 -14 -3 -14 -6z"/>
<path d="M33915 20789 c-4 -6 -5 -12 -2 -15 2 -3 7 2 10 11 7 17 1 20 -8 4z"/>
<path d="M34125 20750 c3 -5 8 -10 11 -10 2 0 4 5 4 10 0 6 -5 10 -11 10 -5 0
-7 -4 -4 -10z"/>
<path d="M31985 20670 c-3 -5 -2 -10 4 -10 5 0 13 5 16 10 3 6 2 10 -4 10 -5
0 -13 -4 -16 -10z"/>
<path d="M31620 20311 c0 -5 6 -12 13 -14 10 -4 10 -6 0 -6 -18 -1 -16 -21 2
-21 8 0 15 5 15 11 0 7 8 18 18 25 15 12 14 13 -15 14 -18 0 -33 -4 -33 -9z"/>
<path d="M28531 19954 c0 -11 3 -14 6 -6 3 7 2 16 -1 19 -3 4 -6 -2 -5 -13z"/>
<path d="M31265 19830 c-3 -5 -1 -10 4 -10 6 0 11 5 11 10 0 6 -2 10 -4 10 -3
0 -8 -4 -11 -10z"/>
<path d="M31400 19809 c0 -5 5 -7 10 -4 6 3 10 8 10 11 0 2 -4 4 -10 4 -5 0
-10 -5 -10 -11z"/>
<path d="M31341 19674 c0 -11 3 -14 6 -6 3 7 2 16 -1 19 -3 4 -6 -2 -5 -13z"/>
<path d="M28341 19561 c-8 -5 -9 -11 -3 -15 5 -3 12 1 16 9 6 17 6 18 -13 6z"/>
<path d="M31030 19329 c0 -18 2 -19 15 -5 8 8 15 17 15 20 0 3 -7 6 -15 6 -9
0 -15 -9 -15 -21z"/>
<path d="M30515 18990 c-3 -5 -2 -10 4 -10 5 0 13 5 16 10 3 6 2 10 -4 10 -5
0 -13 -4 -16 -10z"/>
<path d="M28081 18964 c0 -11 3 -14 6 -6 3 7 2 16 -1 19 -3 4 -6 -2 -5 -13z"/>
<path d="M28051 18894 c0 -11 3 -14 6 -6 3 7 2 16 -1 19 -3 4 -6 -2 -5 -13z"/>
<path d="M29925 18610 c3 -5 8 -10 11 -10 2 0 4 5 4 10 0 6 -5 10 -11 10 -5 0
-7 -4 -4 -10z"/>
<path d="M29848 18583 c6 -2 18 -2 25 0 6 3 1 5 -13 5 -14 0 -19 -2 -12 -5z"/>
<path d="M27840 18225 c0 -8 5 -15 10 -15 6 0 10 7 10 15 0 8 -4 15 -10 15 -5
0 -10 -7 -10 -15z"/>
<path d="M27840 18189 c0 -5 5 -7 10 -4 6 3 10 8 10 11 0 2 -4 4 -10 4 -5 0
-10 -5 -10 -11z"/>
<path d="M27840 17910 c0 -6 -4 -9 -9 -5 -5 3 -12 1 -16 -4 -3 -6 -12 -8 -20
-4 -8 3 -15 0 -15 -6 0 -6 12 -11 26 -11 29 0 60 25 44 35 -5 3 -10 1 -10 -5z"/>
<path d="M27740 17871 c0 -6 5 -13 10 -16 6 -3 10 1 10 9 0 9 -4 16 -10 16 -5
0 -10 -4 -10 -9z"/>
<path d="M28545 17870 c3 -5 8 -10 11 -10 2 0 4 5 4 10 0 6 -5 10 -11 10 -5 0
-7 -4 -4 -10z"/>
<path d="M27933 17853 c-18 -6 -16 -33 1 -33 15 0 30 27 18 33 -4 3 -13 2 -19
0z"/>
<path d="M27710 17809 c0 -11 5 -17 10 -14 6 3 10 13 10 21 0 8 -4 14 -10 14
-5 0 -10 -9 -10 -21z"/>
<path d="M27745 17819 c-4 -6 -5 -12 -2 -15 2 -3 7 2 10 11 7 17 1 20 -8 4z"/>
<path d="M28110 17759 c19 -7 29 -14 22 -16 -15 -6 -6 -23 12 -23 8 0 16 9 19
20 3 12 0 20 -8 20 -7 0 -28 2 -46 5 l-34 5 35 -11z"/>
<path d="M28400 17681 c0 -5 -10 -12 -22 -14 -20 -4 -19 -4 5 -6 18 -1 27 4
27 14 0 8 -2 15 -5 15 -3 0 -5 -4 -5 -9z"/>
<path d="M28000 17630 c0 -12 37 -12 65 0 15 7 10 9 -22 9 -24 1 -43 -3 -43
-9z"/>
<path d="M27094 24254 c0 -13 4 -24 8 -24 4 0 8 9 8 19 0 11 -4 22 -8 25 -4 2
-8 -6 -8 -20z"/>
<path d="M27107 24203 c-4 -3 -6 -22 -6 -42 l1 -36 8 40 c8 42 8 49 -3 38z"/>
<path d="M26961 23784 c0 -11 3 -14 6 -6 3 7 2 16 -1 19 -3 4 -6 -2 -5 -13z"/>
<path d="M26882 23680 c0 -19 2 -27 5 -17 2 9 2 25 0 35 -3 9 -5 1 -5 -18z"/>
<path d="M26493 22875 c0 -22 2 -30 4 -17 2 12 2 30 0 40 -3 9 -5 -1 -4 -23z"/>
<path d="M26542 22860 c0 -14 2 -19 5 -12 2 6 2 18 0 25 -3 6 -5 1 -5 -13z"/>
<path d="M26450 22721 c0 -25 6 -27 13 -6 4 8 2 17 -3 20 -6 4 -10 -3 -10 -14z"/>
<path d="M26441 22668 c1 -18 2 -19 6 -5 2 9 9 14 15 11 7 -4 8 -2 4 4 -12 20
-26 13 -25 -10z"/>
<path d="M26343 22435 c0 -22 2 -30 4 -17 2 12 2 30 0 40 -3 9 -5 -1 -4 -23z"/>
<path d="M26332 22365 c0 -16 2 -22 5 -12 2 9 2 23 0 30 -3 6 -5 -1 -5 -18z"/>
<path d="M26222 22115 c0 -16 2 -22 5 -12 2 9 2 23 0 30 -3 6 -5 -1 -5 -18z"/>
<path d="M26136 22100 c-9 -30 -36 -233 -31 -238 2 -3 7 1 9 9 7 22 30 163 28
172 -1 4 2 16 7 25 6 11 6 24 1 32 -8 12 -10 12 -14 0z"/>
<path d="M26191 21944 c0 -11 3 -14 6 -6 3 7 2 16 -1 19 -3 4 -6 -2 -5 -13z"/>
<path d="M26090 21818 c0 -13 -3 -34 -6 -48 -4 -18 -3 -21 4 -10 14 23 23 80
12 80 -6 0 -10 -10 -10 -22z"/>
<path d="M26077 21727 c-4 -10 -7 -26 -7 -35 1 -15 2 -15 11 1 6 10 9 25 7 35
-3 16 -4 15 -11 -1z"/>
<path d="M26061 21654 c0 -11 3 -14 6 -6 3 7 2 16 -1 19 -3 4 -6 -2 -5 -13z"/>
<path d="M26051 21604 c0 -11 3 -14 6 -6 3 7 2 16 -1 19 -3 4 -6 -2 -5 -13z"/>
<path d="M26040 21538 c0 -19 2 -20 10 -8 13 19 13 30 0 30 -5 0 -10 -10 -10
-22z"/>
<path d="M26011 21406 c-14 -56 -14 -63 0 -49 10 10 23 93 15 93 -2 0 -9 -20
-15 -44z"/>
<path d="M25971 21234 c0 -11 3 -14 6 -6 3 7 2 16 -1 19 -3 4 -6 -2 -5 -13z"/>
<path d="M25961 21194 c0 -11 3 -14 6 -6 3 7 2 16 -1 19 -3 4 -6 -2 -5 -13z"/>
<path d="M25953 21158 c0 -7 -3 -23 -7 -35 -10 -32 2 -29 15 4 5 15 6 30 1 35
-5 5 -9 3 -9 -4z"/>
<path d="M26028 21140 c-3 -16 -1 -30 4 -30 4 0 8 14 8 30 0 17 -2 30 -4 30
-2 0 -6 -13 -8 -30z"/>
<path d="M26197 20941 c-4 -17 -3 -21 5 -13 5 5 8 16 6 23 -3 8 -7 3 -11 -10z"/>
<path d="M26721 20904 c0 -11 3 -14 6 -6 3 7 2 16 -1 19 -3 4 -6 -2 -5 -13z"/>
<path d="M26631 20854 c0 -11 3 -14 6 -6 3 7 2 16 -1 19 -3 4 -6 -2 -5 -13z"/>
<path d="M25981 20844 c0 -11 3 -14 6 -6 3 7 2 16 -1 19 -3 4 -6 -2 -5 -13z"/>
<path d="M26620 20813 c0 -13 5 -23 10 -23 13 0 13 11 0 30 -8 12 -10 11 -10
-7z"/>
<path d="M26271 20794 c0 -11 3 -14 6 -6 3 7 2 16 -1 19 -3 4 -6 -2 -5 -13z"/>
<path d="M26755 20760 c-3 -5 -1 -10 4 -10 6 0 11 5 11 10 0 6 -2 10 -4 10 -3
0 -8 -4 -11 -10z"/>
<path d="M26793 20693 c-7 -15 -11 -29 -8 -31 3 -3 5 0 5 7 0 7 5 9 10 6 6 -4
10 5 10 19 0 32 -2 32 -17 -1z"/>
<path d="M27075 20647 c-4 -10 -5 -21 -1 -24 10 -10 18 4 13 24 -4 17 -4 17
-12 0z"/>
<path d="M23077 19281 l-38 -30 38 6 c46 7 45 6 41 33 -3 21 -4 21 -41 -9z"/>
<path d="M23130 19200 c0 -18 4 -29 10 -25 6 3 10 15 10 25 0 10 -4 22 -10 25
-6 4 -10 -7 -10 -25z"/>
<path d="M23096 19085 c4 -8 11 -15 16 -15 6 0 5 6 -2 15 -7 8 -14 15 -16 15
-2 0 -1 -7 2 -15z"/>
<path d="M23153 18994 c9 -17 14 -34 11 -37 -3 -3 1 -4 10 -3 27 4 26 12 -5
42 l-31 29 15 -31z"/>
<path d="M23350 18850 c-8 -5 -10 -10 -5 -10 6 0 17 5 25 10 8 5 11 10 5 10
-5 0 -17 -5 -25 -10z"/>
<path d="M26287 19693 c-3 -5 1 -14 9 -21 12 -10 14 -10 14 2 0 17 -16 30 -23
19z"/>
<path d="M26086 19065 c-9 -26 -7 -32 5 -12 6 10 9 21 6 23 -2 3 -7 -2 -11
-11z"/>
<path d="M24771 18914 c-12 -27 -11 -28 4 -12 10 9 16 21 13 28 -2 7 -10 -1
-17 -16z"/>
<path d="M24722 18824 c-7 -14 -8 -23 -2 -19 15 9 32 45 22 45 -5 0 -14 -12
-20 -26z"/>
<path d="M33286 19883 c-6 -14 -5 -15 5 -6 7 7 10 15 7 18 -3 3 -9 -2 -12 -12z"/>
<path d="M33230 19639 c0 -5 5 -7 10 -4 6 3 10 8 10 11 0 2 -4 4 -10 4 -5 0
-10 -5 -10 -11z"/>
<path d="M32080 18758 c0 -19 2 -20 10 -8 13 19 13 30 0 30 -5 0 -10 -10 -10
-22z"/>
<path d="M32020 18738 c-8 -13 -13 -30 -11 -38 2 -8 -1 -12 -5 -7 -4 4 -18
-11 -32 -34 -27 -45 -24 -66 4 -24 12 19 19 23 25 14 5 -8 11 -1 17 22 6 19
11 28 11 20 1 -11 4 -11 16 -1 11 9 12 16 4 26 -8 10 -6 12 9 9 16 -3 19 1 14
17 -4 15 -7 17 -13 6 -7 -10 -9 -10 -9 0 0 19 -14 14 -30 -10z"/>
<path d="M31862 18680 c-7 -11 -17 -20 -23 -20 -5 0 -7 5 -4 10 3 6 -1 10 -9
10 -24 0 -30 -20 -10 -35 17 -12 22 -10 47 13 27 25 34 42 19 42 -4 0 -13 -9
-20 -20z"/>
<path d="M31780 18589 c0 -5 5 -7 10 -4 6 3 10 8 10 11 0 2 -4 4 -10 4 -5 0
-10 -5 -10 -11z"/>
<path d="M31921 18569 c-30 -33 -26 -44 6 -15 15 14 24 28 21 31 -3 4 -15 -4
-27 -16z"/>
<path d="M31955 18430 c-3 -5 -12 -7 -19 -4 -17 6 -31 -12 -16 -21 5 -3 10 0
10 7 0 10 2 10 8 1 6 -9 11 -7 20 7 7 11 10 20 8 20 -3 0 -7 -4 -11 -10z"/>
<path d="M31893 18380 c-11 -16 -10 -18 2 -14 8 4 15 12 15 20 0 19 -3 18 -17
-6z"/>
<path d="M31513 18348 c-22 -36 -31 -58 -22 -58 6 0 16 14 23 30 7 17 16 27
21 23 4 -5 5 -2 1 5 -4 6 -9 12 -11 12 -2 0 -7 -6 -12 -12z"/>
<path d="M31906 18265 c-9 -13 -16 -30 -16 -37 0 -14 23 17 33 45 9 24 2 21
-17 -8z"/>
<path d="M27785 17280 c-3 -5 1 -10 9 -10 8 0 18 5 21 10 3 6 -1 10 -9 10 -8
0 -18 -4 -21 -10z"/>
<path d="M27826 17265 c-18 -14 -17 -15 18 -30 21 -9 48 -26 59 -38 14 -14 31
-21 47 -19 17 2 21 0 12 -6 -17 -12 -1 -25 51 -42 21 -6 41 -19 44 -29 9 -24
25 -31 53 -25 18 4 21 3 11 -4 -10 -7 -10 -11 -1 -17 12 -7 29 11 52 55 7 14
20 29 28 34 11 7 -3 15 -55 29 -39 10 -83 21 -100 24 -16 3 -35 9 -40 14 -6 4
-37 17 -70 29 -33 13 -64 26 -69 31 -13 12 -17 11 -40 -6z m39 -15 c19 -8 19
-9 -2 -9 -12 -1 -25 4 -28 9 -7 12 2 12 30 0z"/>
<path d="M27980 17053 c0 -5 13 -17 30 -26 24 -15 56 -17 90 -7 3 1 -15 7 -40
14 -25 7 -53 16 -62 21 -10 4 -18 3 -18 -2z"/>
<path d="M27200 16890 c0 -5 5 -10 11 -10 5 0 7 5 4 10 -3 6 -8 10 -11 10 -2
0 -4 -4 -4 -10z"/>
<path d="M27216 16858 c-9 -12 -16 -37 -16 -55 0 -20 -7 -36 -17 -42 -10 -6
-13 -11 -6 -11 6 0 19 -3 28 -6 9 -4 15 -3 14 2 -1 5 -1 28 0 52 1 29 5 42 15
42 15 0 28 24 19 34 -11 11 -22 6 -37 -16z"/>
<path d="M32670 16860 c0 -5 -7 -10 -15 -10 -8 0 -15 -5 -15 -10 0 -7 6 -7 20
0 18 10 28 30 15 30 -3 0 -5 -4 -5 -10z"/>
<path d="M32831 16843 c-5 -10 -13 -17 -18 -15 -4 2 -9 -2 -12 -9 -2 -7 1 -9
8 -5 7 4 18 3 25 -3 10 -8 16 -8 25 3 9 11 8 15 -4 20 -9 3 -13 10 -10 16 3 5
4 10 1 10 -3 0 -9 -8 -15 -17z m19 -23 c0 -5 -2 -10 -4 -10 -3 0 -8 5 -11 10
-3 6 -1 10 4 10 6 0 11 -4 11 -10z"/>
<path d="M32220 16734 c-39 -40 -42 -45 -20 -39 14 4 25 8 26 9 33 55 45 76
42 76 -2 0 -24 -21 -48 -46z"/>
<path d="M28081 16734 c0 -11 3 -14 6 -6 3 7 2 16 -1 19 -3 4 -6 -2 -5 -13z"/>
<path d="M28117 16629 c-22 -13 -13 -29 18 -29 13 0 25 -5 27 -12 3 -9 6 -9
12 0 4 7 2 12 -3 12 -6 0 -11 9 -11 20 0 22 -15 25 -43 9z"/>
<path d="M32046 16579 c-11 -11 -21 -17 -23 -15 -6 6 -72 -64 -78 -84 -8 -27
24 -20 39 9 7 12 15 18 19 15 4 -4 7 -1 7 7 0 8 14 26 31 40 18 14 30 30 28
36 -2 6 -13 2 -23 -8z"/>
<path d="M29490 16569 c0 -5 5 -7 10 -4 6 3 10 8 10 11 0 2 -4 4 -10 4 -5 0
-10 -5 -10 -11z"/>
<path d="M28058 16523 c7 -3 16 -2 19 1 4 3 -2 6 -13 5 -11 0 -14 -3 -6 -6z"/>
<path d="M28100 16508 c1 -7 16 -23 35 -35 27 -17 32 -18 27 -5 -15 40 -63 71
-62 40z"/>
<path d="M28163 16498 c2 -7 10 -13 17 -13 7 0 15 6 18 13 2 7 -5 12 -18 12
-13 0 -20 -5 -17 -12z"/>
<path d="M27004 16379 c-3 -6 -1 -15 6 -19 10 -6 9 -9 -1 -13 -10 -4 -9 -6 3
-6 9 -1 19 -7 21 -13 3 -7 6 -3 6 9 2 43 -19 68 -35 42z"/>
<path d="M31764 16335 c-10 -8 -14 -15 -8 -15 6 0 17 7 24 15 16 19 9 19 -16
0z"/>
<path d="M28377 16334 c-8 -8 1 -24 14 -24 5 0 9 7 9 15 0 15 -12 20 -23 9z"/>
<path d="M26942 16317 c-6 -7 -7 -18 -3 -26 7 -11 11 -9 20 7 6 11 11 23 11
26 0 11 -17 6 -28 -7z"/>
<path d="M28272 16302 c-12 -2 -20 -7 -17 -12 3 -5 1 -11 -5 -15 -5 -3 -10
-11 -10 -17 0 -6 8 -4 18 5 27 25 38 21 16 -5 -19 -22 -19 -22 13 1 l33 22 30
-33 c25 -27 32 -30 40 -18 5 8 14 15 20 15 6 0 15 7 20 15 5 8 12 11 16 7 4
-3 1 -13 -5 -21 -8 -9 -8 -16 -2 -20 5 -4 13 4 17 16 4 13 12 27 18 31 7 6 4
7 -6 3 -10 -3 -18 -2 -18 3 0 4 -11 6 -25 3 -14 -2 -25 -9 -25 -14 0 -5 -7 -3
-15 6 -8 8 -15 20 -15 27 0 7 -6 5 -14 -6 -11 -15 -15 -16 -22 -4 -9 15 -23
17 -62 11z"/>
<path d="M26984 16291 c4 -5 0 -12 -6 -14 -7 -3 -4 -6 8 -6 12 -1 21 5 21 14
0 8 -7 15 -14 15 -8 0 -12 -4 -9 -9z"/>
<path d="M28565 16260 c-3 -5 1 -10 9 -10 9 0 16 5 16 10 0 6 -4 10 -9 10 -6
0 -13 -4 -16 -10z"/>
<path d="M28332 16188 c6 -18 28 -21 28 -4 0 9 -7 16 -16 16 -9 0 -14 -5 -12
-12z"/>
<path d="M26822 15977 c2 -15 11 -23 28 -24 14 -1 20 0 13 3 -7 3 -10 11 -7
18 3 8 -4 16 -16 19 -17 4 -21 1 -18 -16z"/>
<path d="M26703 15713 c-29 -5 -30 -33 -2 -33 25 0 59 17 59 30 0 10 -16 11
-57 3z"/>
<path d="M26673 15633 c-4 -10 -11 -21 -17 -25 -6 -4 -7 -10 -3 -14 4 -4 16 2
27 14 12 12 25 22 30 22 6 0 10 5 10 10 0 17 -40 11 -47 -7z"/>
<path d="M26617 15599 c7 -7 15 -10 18 -7 3 3 -2 9 -12 12 -14 6 -15 5 -6 -5z"/>
<path d="M26620 15490 c0 -5 7 -10 16 -10 8 0 12 5 9 10 -3 6 -10 10 -16 10
-5 0 -9 -4 -9 -10z"/>
<path d="M26795 15280 c3 -5 8 -10 11 -10 2 0 4 5 4 10 0 6 -5 10 -11 10 -5 0
-7 -4 -4 -10z"/>
<path d="M26675 15260 c4 -6 11 -8 16 -5 14 9 11 15 -7 15 -8 0 -12 -5 -9 -10z"/>
<path d="M26400 14755 c0 -2 10 -10 23 -16 20 -11 21 -11 8 4 -13 16 -31 23
-31 12z"/>
<path d="M26280 14630 c0 -5 5 -10 11 -10 5 0 7 5 4 10 -3 6 -8 10 -11 10 -2
0 -4 -4 -4 -10z"/>
<path d="M26150 14140 c0 -5 5 -10 11 -10 5 0 7 5 4 10 -3 6 -8 10 -11 10 -2
0 -4 -4 -4 -10z"/>
<path d="M26640 13956 c0 -2 7 -7 16 -10 8 -3 12 -2 9 4 -6 10 -25 14 -25 6z"/>
<path d="M27627 17628 c-7 -25 -3 -33 12 -23 13 8 15 45 2 45 -5 0 -11 -10
-14 -22z"/>
<path d="M27840 17490 c0 -5 19 -10 43 -10 31 0 38 3 27 10 -20 13 -70 13 -70
0z"/>
<path d="M19407 13185 c-78 -89 -134 -109 -267 -93 -21 3 -25 -1 -25 -22 0
-18 9 -29 34 -42 30 -15 37 -15 62 -2 16 8 55 14 90 14 58 0 66 3 117 42 52
40 55 41 80 27 15 -8 28 -22 30 -30 5 -27 -54 -95 -103 -119 -40 -19 -58 -22
-127 -18 -86 5 -99 -2 -79 -41 24 -45 154 -35 269 20 68 33 92 65 92 123 0 36
-36 76 -69 76 -13 0 -13 2 -2 9 16 10 10 73 -10 97 -21 25 -43 15 -92 -41z"/>
</g>
</svg>
